<svg id="twitter" xmlns="http://www.w3.org/2000/svg" width="18.09" height="14.693" viewBox="0 0 18.09 14.693">
  <path id="Path" d="M16.231,3.662c.011.161.011.321.011.482A10.477,10.477,0,0,1,5.693,14.693,10.477,10.477,0,0,1,0,13.028a7.67,7.67,0,0,0,.9.046A7.425,7.425,0,0,0,5.5,11.49,3.714,3.714,0,0,1,2.032,8.919a4.676,4.676,0,0,0,.7.057,3.921,3.921,0,0,0,.976-.126A3.708,3.708,0,0,1,.735,5.211V5.165a3.734,3.734,0,0,0,1.676.471A3.713,3.713,0,0,1,1.263.677a10.539,10.539,0,0,0,7.645,3.88,4.185,4.185,0,0,1-.092-.849,3.711,3.711,0,0,1,6.417-2.537,7.3,7.3,0,0,0,2.353-.9,3.7,3.7,0,0,1-1.63,2.043,7.433,7.433,0,0,0,2.135-.574A7.97,7.97,0,0,1,16.231,3.662Z" fill="#b37978"/>
</svg>
