<svg id="instagram" xmlns="http://www.w3.org/2000/svg" width="19.16" height="19.156" viewBox="0 0 19.16 19.156">
  <path id="Shape" d="M9.58,19.156c-1.7,0-3.215-.026-3.952-.067a5.678,5.678,0,0,1-4.013-1.547A5.631,5.631,0,0,1,.067,13.528c-.09-1.588-.09-6.316,0-7.9A5.649,5.649,0,0,1,1.615,1.611,5.653,5.653,0,0,1,5.628.068C6.36.026,7.874,0,9.58,0s3.22.026,3.952.068a5.662,5.662,0,0,1,4.014,1.547,5.63,5.63,0,0,1,1.547,4.013c.089,1.587.089,6.312,0,7.9a5.669,5.669,0,0,1-1.547,4.014,5.631,5.631,0,0,1-4.014,1.547C12.8,19.13,11.281,19.156,9.58,19.156Zm0-1.726c.2,0,.433,0,.682,0,.308,0,.655.007,1.016.007a13.469,13.469,0,0,0,3.948-.4,3.237,3.237,0,0,0,1.821-1.821,17.225,17.225,0,0,0,.389-4.962c0-.251,0-.486,0-.684s0-.433,0-.682a17.245,17.245,0,0,0-.389-4.964A3.241,3.241,0,0,0,15.229,2.11a13.769,13.769,0,0,0-3.993-.395c-.351,0-.689,0-.986.006-.244,0-.473,0-.667,0s-.432,0-.681,0c-.306,0-.652-.007-1.012-.007a13.514,13.514,0,0,0-3.955.4A3.24,3.24,0,0,0,2.114,3.932a17.434,17.434,0,0,0-.389,4.976c0,.244,0,.474,0,.67s0,.432,0,.681a17.281,17.281,0,0,0,.389,4.966,3.241,3.241,0,0,0,1.821,1.821,13.726,13.726,0,0,0,3.987.4c.352,0,.691,0,.99-.006C9.156,17.432,9.386,17.43,9.582,17.43Zm0-2.941a4.9,4.9,0,1,1,3.475-1.437A4.88,4.88,0,0,1,9.582,14.489Zm0-8.1a3.193,3.193,0,1,0,3.193,3.193A3.2,3.2,0,0,0,9.582,6.385Zm5.112-.774A1.146,1.146,0,1,1,15.84,4.466,1.147,1.147,0,0,1,14.694,5.612Z" fill="#b37978"/>
</svg>
