<svg xmlns="http://www.w3.org/2000/svg" width="284.233" height="60" viewBox="0 0 284.233 60">
  <g id="Group_12575" data-name="Group 12575" transform="translate(-99 -22)">
    <path id="Path_162" data-name="Path 162" d="M30,0A30,30,0,1,1,0,30,30,30,0,0,1,30,0Z" transform="translate(99 22)" fill="#b37978"/>
    <g id="Group_12549" data-name="Group 12549" transform="translate(114.863 34.411)">
      <path id="Path_70" data-name="Path 70" d="M349.934,83.179l-.069.052a7.6,7.6,0,0,1-2.014,1.023l-1.478.446a20.215,20.215,0,0,1-4.791.532,13.433,13.433,0,0,1-13.275-13.556c0-7.058,5.9-10.623,6.578-11.006l.433-.247.3.4a9.035,9.035,0,0,0,4.842,3.417,6.781,6.781,0,0,0,5.315-1.137.371.371,0,0,0,.164-.239.384.384,0,0,0-.056-.288.376.376,0,0,0-.235-.158.369.369,0,0,0-.28.053,6.053,6.053,0,0,1-4.73,1.036c-2.969-.67-4.808-3.685-4.827-3.716a.4.4,0,0,0-.329-.18.329.329,0,0,0-.075.009,11.911,11.911,0,0,0-4.4,3.292,13.122,13.122,0,0,0-3.454,8.767A14.558,14.558,0,0,0,331.8,81.894a13.758,13.758,0,0,0,9.779,4.086c6.156,0,8.682-2.1,8.787-2.189a.377.377,0,0,0-.435-.611" transform="translate(-327.554 -50.37)" fill="#fbe7dd"/>
      <path id="Path_71" data-name="Path 71" d="M373.9,9.7l-.388-.212.109-.428a7.257,7.257,0,0,0-1.043-6.081A6.989,6.989,0,0,0,366.882,0a7.5,7.5,0,0,0-6.573,3.638.376.376,0,0,0-.02.278.368.368,0,0,0,.183.22.38.38,0,0,0,.29.028.343.343,0,0,0,.178-.119l.038-.062,1.06-1.318A6.838,6.838,0,0,1,366.882.753a6.225,6.225,0,0,1,5.08,2.652,6.672,6.672,0,0,1,.725,6.154.374.374,0,0,0,.2.471c.265.112,6.495,2.835,6.495,9.6a10.286,10.286,0,0,1-3.154,7.291,13.9,13.9,0,0,1-9.63,3.951c-6.139,0-8.935-4.231-8.935-8.162a3.541,3.541,0,0,1,1-2.626,5.806,5.806,0,0,1,3.8-1.408,3.684,3.684,0,0,1,3.5,2.471.378.378,0,0,0,.447.246,5.651,5.651,0,0,1,2.772.091,5.069,5.069,0,0,1,3.426,3.908.372.372,0,0,0,.174.231.36.36,0,0,0,.279.038.378.378,0,0,0,.272-.469,5.746,5.746,0,0,0-6.384-4.651l-.381.039-.179-.339a4.48,4.48,0,0,0-3.923-2.318,6.62,6.62,0,0,0-4.326,1.628,4.3,4.3,0,0,0-1.227,3.159,8.885,8.885,0,0,0,2.557,6.25,9.807,9.807,0,0,0,7.131,2.665,14.646,14.646,0,0,0,10.157-4.173,11.072,11.072,0,0,0,3.378-7.823c0-5.872-4.362-8.9-6.238-9.931" transform="translate(-352.362 0)" fill="#fbe7dd"/>
    </g>
    <g id="Group_12556" data-name="Group 12556" transform="translate(-397.567 147)">
      <path id="Path_39" data-name="Path 39" d="M7.915,303.576c4.013,0,6.546.8,8.312,2.477a8.237,8.237,0,0,1,2.42,6.092,9.36,9.36,0,0,1-3.558,7.686c-2.164,1.622-4.925,2.249-8.426,2.249H0v-.8c2.448-.227,2.563-.427,2.563-2.761V307.163c0-2.448-.342-2.562-2.563-2.79v-.8ZM5.039,318.293c0,2.135.91,2.733,3.046,2.733,5.124,0,7.742-3.5,7.742-8.483,0-3.1-1.053-5.465-3.3-6.832a9.009,9.009,0,0,0-4.868-1.139,4.033,4.033,0,0,0-2.248.4c-.257.17-.37.483-.37,1.594Z" transform="translate(581.567 -417.835)" fill="#b37978"/>
      <path id="Path_40" data-name="Path 40" d="M114.9,322.307c-.37,0-.684-.029-1.054-.057a5.053,5.053,0,0,1-4.441-2.448c-1.054-1.452-2.078-3.245-2.988-4.7-.571-.911-.94-1.082-2.391-1.082h-1v4.469c0,2.42.313,2.562,2.59,2.79v.8h-7.6v-.8c2.363-.256,2.562-.37,2.562-2.79V307.134c0-2.42-.313-2.5-2.562-2.761v-.8h7.259a8.033,8.033,0,0,1,4.554.968,4.254,4.254,0,0,1,1.936,3.758c0,2.448-1.565,3.985-3.672,4.9.513.883,1.737,2.789,2.59,4.07a26.186,26.186,0,0,0,2.249,2.932,4.094,4.094,0,0,0,2.079,1.309Zm-10.5-9.252a4.588,4.588,0,0,0,3.132-.825,4,4,0,0,0,1.565-3.5c0-3.046-2.022-4.156-4.213-4.156a2.611,2.611,0,0,0-1.509.285c-.256.2-.341.484-.341,1.224v6.974Z" transform="translate(506.514 -417.835)" fill="#b37978"/>
      <path id="Path_42" data-name="Path 42" d="M274.677,306.023a10.856,10.856,0,0,0-.911-2.363c-.456-.769-.741-.968-2.306-.968h-2.846v13.863c0,2.221.227,2.534,2.931,2.7v.8h-8.284v-.8c2.648-.171,2.875-.455,2.875-2.7V302.692h-2.59c-1.566,0-2.021.171-2.5,1.024a12.936,12.936,0,0,0-.939,2.306h-.855c.171-1.737.341-3.53.426-5.124h.656c.426.683.74.655,1.536.655H273.14a1.428,1.428,0,0,0,1.451-.655h.683c0,1.338.114,3.387.256,5.038Z" transform="translate(383.717 -415.813)" fill="#b37978"/>
      <path id="Path_43" data-name="Path 43" d="M342.366,320.848v-.8c1.85-.227,2.077-.512,1.68-1.594-.37-1.11-.94-2.533-1.538-4.327H336.36c-.455,1.281-.883,2.391-1.281,3.558-.626,1.85-.227,2.078,2.107,2.362v.8h-6.577v-.8c1.795-.227,2.249-.427,3.246-2.988l5.893-14.945.91-.17c1.793,4.868,3.757,10.247,5.551,15.172.912,2.476,1.167,2.7,3.188,2.932v.8Zm-2.847-15.172c-.91,2.448-1.879,5.039-2.733,7.287h5.325Z" transform="translate(329.807 -416.605)" fill="#b37978"/>
      <path id="Path_44" data-name="Path 44" d="M440.2,315.189c-.2.968-.883,3.644-1.167,4.868h-14.8l-.257-.455c3.958-5.466,7.914-11.131,11.928-16.909H430.3c-2.534,0-2.961.171-3.558,1.053a10.28,10.28,0,0,0-1.082,2.391l-.853-.028c.142-1.48.483-3.957.54-5.209h.741c.312.683.655.655,1.508.655h11.5l.227.456c-3.956,5.551-7.8,11.073-11.728,16.823.883.057,2.733.085,4.669.085,3.729,0,4.582-.142,5.38-1.024a10.009,10.009,0,0,0,1.737-2.9Z" transform="translate(258.273 -415.813)" fill="#b37978"/>
      <path id="Path_45" data-name="Path 45" d="M521.924,304.373c-1.993.227-2.333.54-3.472,2.362-1.281,2.078-2.334,4.043-3.729,6.576a3.018,3.018,0,0,0-.427,1.68v3.5c0,2.363.256,2.534,2.9,2.789v.8h-8.17v-.8c2.59-.341,2.79-.4,2.79-2.789V314.82a2.91,2.91,0,0,0-.569-1.651c-1-1.85-1.964-3.644-3.5-6.32-1.11-1.936-1.395-2.278-3.33-2.477v-.8h7v.8c-2.049.285-1.935.655-1.423,1.622,1.2,2.192,2.533,4.754,3.729,6.889,1.025-1.908,2.647-5.01,3.445-6.576.654-1.423.568-1.708-1.68-1.936v-.8h6.433Z" transform="translate(197.502 -417.835)" fill="#b37978"/>
      <path id="Path_46" data-name="Path 46" d="M606.43,317.377c-.17.741-.939,3.672-1.224,4.526H591.372v-.8c2.647-.2,2.846-.455,2.846-2.79V307.072c0-2.533-.312-2.676-2.448-2.875v-.8h8.712c2.675,0,3.786-.029,4.127-.057.028.712.143,2.846.257,4.355l-.854.143a9.437,9.437,0,0,0-.854-2.164c-.456-.94-1.11-1.139-2.818-1.139h-2.7c-.882,0-.94.085-.94.911v6.291h3.161c2.134,0,2.276-.427,2.619-2.363h.882v5.864h-.882c-.371-2.05-.6-2.334-2.647-2.334h-3.132v5.665c0,1.993.626,2.163,2.05,2.192h2.647c1.737,0,2.021-.256,2.648-1a12.256,12.256,0,0,0,1.537-2.619Z" transform="translate(130.813 -417.659)" fill="#b37978"/>
      <path id="Path_47" data-name="Path 47" d="M685.479,317.377c-.17.741-.939,3.672-1.224,4.526H670.421v-.8c2.647-.2,2.846-.455,2.846-2.79V307.072c0-2.533-.312-2.676-2.448-2.875v-.8h8.711c2.675,0,3.786-.029,4.127-.057.028.712.143,2.846.257,4.355l-.855.143a9.432,9.432,0,0,0-.854-2.164c-.456-.94-1.11-1.139-2.818-1.139h-2.7c-.882,0-.94.085-.94.911v6.291h3.16c2.134,0,2.277-.427,2.619-2.363h.882v5.864h-.882c-.37-2.05-.6-2.334-2.647-2.334h-3.132v5.665c0,1.993.626,2.163,2.05,2.192h2.647c1.736,0,2.021-.256,2.648-1a12.266,12.266,0,0,0,1.537-2.619Z" transform="translate(71.095 -417.659)" fill="#b37978"/>
      <path id="Path_48" data-name="Path 48" d="M768.624,304.373c-1.821.2-2.419.484-2.505,1.794-.028.911-.085,2.107-.085,4.754v11.415h-1.082l-12.183-14.888v7.116c0,2.562.086,3.843.143,4.669.057,1.451.768,1.879,2.817,2.049v.8h-6.917v-.8c1.765-.142,2.448-.569,2.562-1.964.085-.911.142-2.192.142-4.783v-7.259a2.48,2.48,0,0,0-.569-1.879c-.541-.712-1.138-.883-2.534-1.025v-.8h4.27l12.07,14.319V310.92c0-2.647-.057-3.871-.142-4.725-.085-1.281-.74-1.68-3.018-1.822v-.8h7.031Z" transform="translate(12.176 -417.835)" fill="#b37978"/>
      <circle id="Ellipse_20" data-name="Ellipse 20" cx="2" cy="2" r="2" transform="translate(626 -99)" fill="#b37978"/>
    </g>
    <g id="Group_12550" data-name="Group 12550" transform="translate(209 66.187)">
      <path id="Path_72" data-name="Path 72" d="M113.015,449.535a4.272,4.272,0,0,1,3.121,1.3l.136.136.473-.472-.136-.135a5.088,5.088,0,1,0,0,7.2l.056-.056v-3.874h-4.019v.662H116v2.927a4.423,4.423,0,1,1-2.987-7.683" transform="translate(-107.923 -447.877)" fill="#937570"/>
      <path id="Path_73" data-name="Path 73" d="M154.017,455.347l-3.068-5.3h-.767l3.5,6.051v3.565h.662v-3.565l3.5-6.051h-.767Z" transform="translate(-140.083 -448.768)" fill="#937570"/>
      <path id="Path_74" data-name="Path 74" d="M195.719,458.5l-6.079-8.375-.058-.079h-.645v9.615h.662V451.2l6.077,8.374.058.079h.354l.013.018.28-.018v-9.615h-.662Z" transform="translate(-169.577 -448.768)" fill="#937570"/>
      <path id="Path_75" data-name="Path 75" d="M231.974,450.044l-4.487,9.615h.736l.7-1.511h6.694l.706,1.511h.735l-4.487-9.615Zm-2.733,7.442,3.034-6.507,3.035,6.507Z" transform="translate(-198.914 -448.768)" fill="#937570"/>
      <path id="Path_76" data-name="Path 76" d="M274.961,459.659h5.7V459h-5.035v-3.814h3.916v-.662h-3.916v-3.814h5.035v-.662h-5.7Z" transform="translate(-235.043 -448.768)" fill="#937570"/>
      <path id="Path_77" data-name="Path 77" d="M336.374,453.313c0,.052,0,.1,0,.156l-2.6-3.385a16.81,16.81,0,0,0,1.448-1.029,2.429,2.429,0,0,0-2.969-3.845,2.371,2.371,0,0,0-.93,1.627,2.638,2.638,0,0,0,.488,1.8l.984,1.259a9.4,9.4,0,0,0-1.417,1.008,3.083,3.083,0,0,0-1.151,2.394,3.412,3.412,0,0,0,5.821,2.407,3.525,3.525,0,0,0,.607-.8l.752.971h.831l-1.3-1.689a3.722,3.722,0,0,0,.1-.886v-2.473h1.959v-.662h-2.621Zm-2.751,2.741a2.75,2.75,0,0,1-2.741-2.741v-.034a2.422,2.422,0,0,1,.928-1.88,9.83,9.83,0,0,1,1.382-.971l3,3.89a2.776,2.776,0,0,1-.624.929,2.627,2.627,0,0,1-1.946.806m.333-10.665a1.7,1.7,0,0,1,1.173.667,1.768,1.768,0,0,1-.315,2.473,16.9,16.9,0,0,1-1.448,1.026l-1.032-1.325a1.942,1.942,0,0,1-.357-1.319,1.743,1.743,0,0,1,1.979-1.523" transform="translate(-277.096 -444.706)" fill="#937570"/>
      <path id="Path_78" data-name="Path 78" d="M402.8,450.044h-3.269v9.615h.662v-2.518H402.8a3.549,3.549,0,0,0,0-7.1m0,6.435h-2.607v-5.773H402.8a2.887,2.887,0,1,1,0,5.773" transform="translate(-329.839 -448.768)" fill="#937570"/>
      <path id="Path_79" data-name="Path 79" d="M440.443,448.873a5.082,5.082,0,1,0,3.594,1.489,4.931,4.931,0,0,0-3.594-1.489m0,9.513a4.433,4.433,0,1,1,3.121-1.3,4.284,4.284,0,0,1-3.121,1.3" transform="translate(-357.102 -447.877)" fill="#937570"/>
      <path id="Path_80" data-name="Path 80" d="M488.228,450.044h-.662v9.615h5.7V459h-5.036Z" transform="translate(-396.839 -448.768)" fill="#937570"/>
      <path id="Path_81" data-name="Path 81" d="M511.462,455.347l-3.068-5.3h-.767l3.5,6.051v3.565h.662v-3.565l3.5-6.051h-.768Z" transform="translate(-412.107 -448.768)" fill="#937570"/>
      <path id="Path_82" data-name="Path 82" d="M546.792,449.535a4.271,4.271,0,0,1,3.12,1.3l.136.136.473-.472-.136-.135a5.088,5.088,0,1,0,0,7.2l.136-.135-.473-.472-.136.136a4.422,4.422,0,1,1-3.12-7.552" transform="translate(-438.036 -447.877)" fill="#937570"/>
      <path id="Path_83" data-name="Path 83" d="M589.894,450.044h-.662v9.615h5.7V459h-5.035Z" transform="translate(-474.209 -448.768)" fill="#937570"/>
      <rect id="Rectangle_1553" data-name="Rectangle 1553" width="0.662" height="9.615" transform="translate(122.184 1.276)" fill="#937570"/>
      <path id="Path_84" data-name="Path 84" d="M640.735,458.5l-6.078-8.375-.058-.079h-.646v9.615h.662V451.2l6.078,8.375.058.078h.353l.013.018.28-.018v-9.615h-.662Z" transform="translate(-508.244 -448.768)" fill="#937570"/>
      <rect id="Rectangle_1554" data-name="Rectangle 1554" width="0.662" height="9.615" transform="translate(136.028 1.276)" fill="#937570"/>
      <path id="Path_85" data-name="Path 85" d="M697.753,457.087a4.425,4.425,0,1,1,0-6.254l.136.136.473-.472-.136-.135a5.088,5.088,0,1,0,0,7.2l.136-.135-.473-.472Z" transform="translate(-550.545 -447.877)" fill="#937570"/>
    </g>
  </g>
</svg>
