<svg xmlns="http://www.w3.org/2000/svg" xmlns:xlink="http://www.w3.org/1999/xlink" width="56.119" height="344" viewBox="0 0 56.119 344">
  <defs>
    <clipPath id="clip-path">
      <rect id="Rectangle_1561" data-name="Rectangle 1561" width="56.119" height="344" fill="#b37978"/>
    </clipPath>
  </defs>
  <g id="Group_12562" data-name="Group 12562" clip-path="url(#clip-path)">
    <path id="Path_143" data-name="Path 143" d="M12.325,183.367c-1-3.689-.1-5.273,3.7-6.524a19.779,19.779,0,0,1-.883-17.238,18.987,18.987,0,0,1,8.39-9.512A19.8,19.8,0,0,1,50.27,177.634a19.288,19.288,0,0,1-11.862,8.783,19.723,19.723,0,0,1-14.6-1.8,4.49,4.49,0,0,1-6.485,3.691c-.125.181-.261.367-.385.559-1.536,2.371-3.043,4.76-4.612,7.108a5.247,5.247,0,0,1-5.16,2.459A5.274,5.274,0,0,1,2.556,194.9a5.467,5.467,0,0,1,2.2-6.6c2.329-1.527,4.675-3.029,7.012-4.543.194-.125.381-.26.558-.382m38.752-16.091A17.665,17.665,0,1,0,33.4,184.937a17.7,17.7,0,0,0,17.677-17.661M13.734,185.017c-2.712,1.764-5.429,3.472-8.076,5.281a3.065,3.065,0,0,0-1.219,3.468,3.172,3.172,0,0,0,2.585,2.488,3.141,3.141,0,0,0,3.43-1.345c1.7-2.538,3.336-5.116,4.984-7.688a.527.527,0,0,0,0-.49c-.542-.581-1.118-1.131-1.706-1.714m2.794-6a2.409,2.409,0,0,0-2.314,1.381,2.1,2.1,0,0,0,.443,2.424q1.541,1.562,3.1,3.1a2.224,2.224,0,1,0,3.16-3.129c-1.006-1.033-2.006-2.078-3.073-3.046a5.58,5.58,0,0,0-1.317-.733" fill="#b37978"/>
    <path id="Path_144" data-name="Path 144" d="M1.613,159.871A1.582,1.582,0,0,1,0,158.245a1.626,1.626,0,0,1,1.6-1.6,1.661,1.661,0,0,1,1.629,1.646,1.617,1.617,0,0,1-1.616,1.579" fill="#b37978"/>
    <path id="Path_145" data-name="Path 145" d="M32.465,194.045a1.563,1.563,0,0,1-1.595-1.575,1.612,1.612,0,0,1,1.6-1.646,1.65,1.65,0,0,1,1.616,1.6,1.61,1.61,0,0,1-1.625,1.624" fill="#b37978"/>
    <path id="Path_146" data-name="Path 146" d="M44.1,146.143a1.562,1.562,0,0,1,1.572-1.6,1.6,1.6,0,1,1,0,3.2,1.578,1.578,0,0,1-1.574-1.6" fill="#b37978"/>
    <path id="Path_147" data-name="Path 147" d="M52.831,191.875a1.073,1.073,0,1,1-1.107-1.05,1.108,1.108,0,0,1,1.107,1.05" fill="#b37978"/>
    <path id="Path_148" data-name="Path 148" d="M15.34,199.555a1.049,1.049,0,1,1,1.111-1.016,1.048,1.048,0,0,1-1.111,1.016" fill="#b37978"/>
    <path id="Path_149" data-name="Path 149" d="M12.086,147.747a1.067,1.067,0,0,1-1.078-1.06,1.069,1.069,0,0,1,2.137-.019,1.062,1.062,0,0,1-1.059,1.079" fill="#b37978"/>
    <path id="Path_150" data-name="Path 150" d="M55.067,157.661a1,1,0,0,1-1.047-1.016,1.014,1.014,0,0,1,1.045-1.079,1.048,1.048,0,1,1,0,2.1" fill="#b37978"/>
    <path id="Path_151" data-name="Path 151" d="M5.5,170.942a1.084,1.084,0,0,1,1.081-1.066,1.073,1.073,0,0,1-.013,2.145A1.089,1.089,0,0,1,5.5,170.942" fill="#b37978"/>
    <path id="Path_152" data-name="Path 152" d="M33.526,156.639A16.513,16.513,0,0,1,48.5,166.56a1.662,1.662,0,0,1-.032,1.458c-2.743,5.761-7.245,9.109-13.614,9.757A16.33,16.33,0,0,1,18.333,168a1.69,1.69,0,0,1,.01-1.506A16.236,16.236,0,0,1,31.9,156.73c.271-.032.541-.073.813-.088s.545,0,.818,0m.027,18.739a8.287,8.287,0,1,0-8.293-8.292,8.305,8.305,0,0,0,8.293,8.292m-8.9-2.709a10.814,10.814,0,0,1-.308-10.536c-.112.028-.155.027-.179.047a13.692,13.692,0,0,0-3.7,4.828.655.655,0,0,0,0,.494,13.286,13.286,0,0,0,4.187,5.167M43.1,162.649a11.107,11.107,0,0,1-.318,9.511,13.2,13.2,0,0,0,3.536-4.624.723.723,0,0,0,.006-.539,12.874,12.874,0,0,0-3.224-4.348" fill="#b37978"/>
    <path id="Path_153" data-name="Path 153" d="M38.479,167.087a4.911,4.911,0,1,1-4.94-4.933,4.922,4.922,0,0,1,4.94,4.933m-4.9,2.776a2.778,2.778,0,1,0-2.8-2.767,2.791,2.791,0,0,0,2.8,2.767" fill="#b37978"/>
    <path id="Path_154" data-name="Path 154" d="M17.544,344a6.206,6.206,0,0,1-.772-.916c-1.09-1.956-2.149-3.929-3.221-5.9-.1-.185-.216-.362-.346-.578l-5.067,1.814c-.7.25-1.394.494-2.086.754a.985.985,0,0,1-1.142-.13,1,1,0,0,1-.143-1.188q2.517-6.6,5.023-13.2c.5-1.31.986-2.623,1.494-3.929.109-.281.153-.465-.15-.685A5.577,5.577,0,0,1,8.819,314a3.95,3.95,0,0,0-1.326-4,5.65,5.65,0,0,1,.012-8.751,3.95,3.95,0,0,0,1.311-4,5.714,5.714,0,0,1,5.207-7.06,4.066,4.066,0,0,0,3.455-2.434,5.8,5.8,0,0,1,8.508-2.72,4.06,4.06,0,0,0,4.174,0,5.8,5.8,0,0,1,8.51,2.715,4.063,4.063,0,0,0,3.452,2.437,5.711,5.711,0,0,1,5.211,7.057,3.975,3.975,0,0,0,1.35,4.042A5.646,5.646,0,0,1,48.658,310a3.942,3.942,0,0,0-1.331,3.993,5.574,5.574,0,0,1-2.311,6.048c-.379.275-.217.515-.11.8l6.37,16.749a3.831,3.831,0,0,1,.2.608c.151.786-.471,1.29-1.27,1.009-1.817-.638-3.627-1.3-5.441-1.947-.6-.215-1.2-.427-1.839-.653-.357.646-.7,1.256-1.03,1.868-.838,1.539-1.661,3.087-2.521,4.614A6.2,6.2,0,0,1,38.6,344h-.468a5.493,5.493,0,0,1-.78-1.1c-2.007-5.207-3.984-10.424-5.974-15.638-.074-.2-.143-.47-.294-.545a13.851,13.851,0,0,0-2.237-.965,4.213,4.213,0,0,0-3.078.565,2.268,2.268,0,0,0-1.193,1.375q-2.87,7.644-5.805,15.264A4.973,4.973,0,0,1,18.012,344Zm10.365-20.134a5.822,5.822,0,0,1,3.2.826,4.005,4.005,0,0,0,5.9-1.913,5.638,5.638,0,0,1,3.093-3.031,10.518,10.518,0,0,1,2.207-.507,3.913,3.913,0,0,0,3.282-4.7,5.8,5.8,0,0,1,1.922-5.949,3.825,3.825,0,0,0-.01-5.937,5.838,5.838,0,0,1-1.936-5.9,4.378,4.378,0,0,0-.02-1.788,3.906,3.906,0,0,0-3.715-3.016,5.774,5.774,0,0,1-4.826-3.488,4,4,0,0,0-5.853-1.914,5.953,5.953,0,0,1-6.12.019,4,4,0,0,0-5.9,1.91,5.75,5.75,0,0,1-3.472,3.182,10.749,10.749,0,0,1-1.828.36,3.9,3.9,0,0,0-3.282,4.694,5.8,5.8,0,0,1-1.922,5.95,3.827,3.827,0,0,0,.01,5.937,5.836,5.836,0,0,1,1.936,5.9,4.378,4.378,0,0,0,.019,1.788,3.95,3.95,0,0,0,3.775,3.026,5.672,5.672,0,0,1,4.712,3.375,4.032,4.032,0,0,0,6.011,1.96,5.665,5.665,0,0,1,2.812-.786m-20.831,13c.376-.125.611-.2.843-.281q2.525-.906,5.05-1.813c.934-.334,1.181-.242,1.649.612q1.332,2.432,2.658,4.867c.1.175.2.346.363.634,1.769-4.649,3.487-9.162,5.217-13.711-.305-.049-.533-.089-.761-.122a5.561,5.561,0,0,1-4.521-3.363,4.442,4.442,0,0,0-4.465-2.681L7.078,336.865m42,.013c-2.059-5.41-4.054-10.655-6.033-15.854a4.541,4.541,0,0,0-4.629,2.965,5.211,5.211,0,0,1-3.608,2.913c-.478.129-.973.191-1.51.292l5.212,13.686c.175-.3.284-.485.385-.671.9-1.656,1.8-3.316,2.712-4.97A.957.957,0,0,1,43,334.7c.79.275,1.574.566,2.361.847,1.184.424,2.37.846,3.714,1.326" fill="#b37978"/>
    <path id="Path_155" data-name="Path 155" d="M14.06,305.583A14.015,14.015,0,1,1,28,319.641,14.04,14.04,0,0,1,14.06,305.583M28.078,293.44a12.191,12.191,0,1,0,12.189,12.192A12.177,12.177,0,0,0,28.078,293.44" fill="#b37978"/>
    <path id="Path_156" data-name="Path 156" d="M22.683,311.823c.207-1.215.412-2.561.675-3.9a.977.977,0,0,0-.331-1.021c-.925-.865-1.814-1.767-2.73-2.642a1.034,1.034,0,0,1-.378-1.091c.133-.465.527-.594.947-.655,1.193-.171,2.386-.354,3.584-.495a1.189,1.189,0,0,0,1.1-.763c.486-1.1,1.061-2.166,1.587-3.25a.982.982,0,0,1,1.883,0c.535,1.1,1.1,2.191,1.617,3.3a1.024,1.024,0,0,0,.894.683c1.179.139,2.35.332,3.526.5.469.065.964.1,1.159.63.213.575-.143.944-.527,1.309-.847.805-1.664,1.642-2.52,2.438a1.04,1.04,0,0,0-.363,1.118c.251,1.159.419,2.335.618,3.5.02.115.028.232.037.349.065.908-.571,1.356-1.385.944-1.2-.605-2.371-1.263-3.576-1.852a1.088,1.088,0,0,0-.842.006c-1.206.588-2.38,1.242-3.578,1.848-.762.385-1.417-.021-1.393-.961m2.084-1.436c.845-.443,1.592-.779,2.278-1.211a1.748,1.748,0,0,1,2.059-.006c.695.433,1.447.775,2.281,1.213-.179-1.066-.308-1.988-.5-2.9a1.386,1.386,0,0,1,.484-1.4c.653-.631,1.256-1.315,1.911-2.009l-1.351-.218c-2.62-.425-1.962.08-3.137-2.219-.223-.437-.441-.876-.726-1.442-.494,1-.92,1.847-1.33,2.7a1.2,1.2,0,0,1-1.023.744c-.958.115-1.908.283-2.852.428.688.726,1.329,1.426,2,2.1a1.245,1.245,0,0,1,.408,1.2c-.181.951-.322,1.909-.5,3.014" fill="#b37978"/>
    <path id="Path_157" data-name="Path 157" d="M29.352,0c.876.164,1.766.272,2.624.5,4.017,1.078,7,3.353,8.3,7.444a13.7,13.7,0,0,1,0,7.613c-.11.443-.122.722.325,1.009a1.787,1.787,0,0,1,.784,1.555c.007.6.01,1.209,0,1.813a2.091,2.091,0,0,1-2.178,2.227c-.619-.008-.818.221-.979.763a10.138,10.138,0,0,1-3.261,5.023,2.614,2.614,0,0,0-.945,1.793,6.378,6.378,0,0,0,1.163,4.419.9.9,0,0,0,.643.25,34.116,34.116,0,0,1,7.686.983A12.065,12.065,0,0,1,52.8,45.275a53.145,53.145,0,0,1,.819,6.36c.149,1.8.117,3.622.136,5.434A2.573,2.573,0,0,1,51,59.857q-22.922,0-45.844,0a2.572,2.572,0,0,1-2.784-2.764A48.079,48.079,0,0,1,3.527,45.321a13.457,13.457,0,0,1,4.532-7.515,14.873,14.873,0,0,1,7.226-2.918c1.652-.244,3.329-.336,5-.454a.885.885,0,0,0,.823-.494,6.093,6.093,0,0,0,.883-4.635,1.831,1.831,0,0,0-.6-.928,11.16,11.16,0,0,1-3.936-5.529c-.163-.517-.379-.742-.93-.675a2.34,2.34,0,0,1-.863-.1,2.049,2.049,0,0,1-1.5-1.882c-.024-.584-.014-1.17-.011-1.754a2.147,2.147,0,0,1,2.268-2.389c.094-.005.188-.023.289-.036-.194-.913-.417-1.8-.566-2.69C15.093,7.006,18.4,2,24.616.488,25.482.278,26.37.16,27.247,0ZM28.077,58.282H47.666c1.111,0,2.222,0,3.333,0,.867,0,1.189-.332,1.189-1.211,0-1.052.011-2.1-.021-3.157a40.959,40.959,0,0,0-.933-8.578c-.912-3.724-2.906-6.552-6.609-7.96a24.228,24.228,0,0,0-8.546-1.358c-.179,0-.446.266-.527.466-1.157,2.848-2.288,5.706-3.428,8.561q-1.547,3.876-3.1,7.75a.993.993,0,0,1-.983.76.967.967,0,0,1-.933-.745c-.026-.073-.058-.145-.087-.217q-3.205-8.021-6.4-16.048A.708.708,0,0,0,19.774,36c-1.585.173-3.189.229-4.756.505a11.931,11.931,0,0,0-7.557,4.044,14.52,14.52,0,0,0-2.8,6.655,50.529,50.529,0,0,0-.714,9.6c0,1.236.231,1.482,1.445,1.482H28.077M18.512,18.56l-.187-.02a28.031,28.031,0,0,0,.381,3.118c1.5,6.425,9.177,9.49,14.459,5.743a9.173,9.173,0,0,0,4.02-8.575c-.115-1.625-.453-3.236-.707-4.85A1.226,1.226,0,0,0,35.059,12.9c-1.4.078-2.8.184-4.2.228a18.048,18.048,0,0,1-7.785-1.208,1.058,1.058,0,0,0-1.39.363c-.643.833-1.248,1.7-1.963,2.47a3.768,3.768,0,0,0-1.208,3.812m-.588-4.079c.218-.248.347-.384.463-.531.726-.916,1.435-1.846,2.176-2.749a2.371,2.371,0,0,1,2.879-.788,17.277,17.277,0,0,0,7.2,1.174c1.5-.04,2.994-.18,4.492-.226A2.665,2.665,0,0,1,38,13.773c.117.747.245,1.492.367,2.238h.168a4.312,4.312,0,0,0,.177-.585,34.842,34.842,0,0,0,.528-3.57,9.155,9.155,0,0,0-5.459-9.075,12.891,12.891,0,0,0-8.094-.957A10.2,10.2,0,0,0,19.373,5.4c-2.158,2.687-2.2,5.748-1.449,9.081m5.839,15.25c-.307,2.887-.314,2.884-1.688,5.625a1.05,1.05,0,0,0,.049.753q2.818,7.105,5.666,14.2c.068.171.147.339.262.6.116-.222.2-.347.25-.482Q31.181,43.22,34.038,36a1.284,1.284,0,0,0-.094-.842c-.442-1.095-1-2.149-1.36-3.267a10.509,10.509,0,0,1-.229-2.224,11.161,11.161,0,0,1-8.592.06M16.842,17.687c-.959-.139-1.162.026-1.169.9q0,.526,0,1.053c.006.905.3,1.118,1.169.891Zm22.006,2.886c.8.073,1-.092,1.013-.856.007-.37,0-.74,0-1.109-.007-.922-.251-1.1-1.189-.91.058.943.115,1.885.175,2.875" fill="#b37978" stroke="#b37978" stroke-width="0.5"/>
    <path id="Path_158" data-name="Path 158" d="M38.755,49.664c-.807,0-1.524.006-2.24,0-.884-.009-1.181-.313-1.183-1.2,0-.934-.007-1.869,0-2.8.007-.733.334-1.057,1.077-1.067s1.51,0,2.344,0c0-.768,0-1.48,0-2.193.006-.939.286-1.224,1.214-1.23s1.83-.008,2.745,0c.809.008,1.109.322,1.116,1.147,0,.735,0,1.47,0,2.274.791,0,1.525,0,2.258,0,.855,0,1.154.3,1.159,1.159,0,.954.009,1.908,0,2.862a.918.918,0,0,1-1.036,1.049c-.758.02-1.517,0-2.379,0,0,.718,0,1.409,0,2.1,0,1.053-.264,1.32-1.3,1.321-.9,0-1.791,0-2.686,0-.743-.005-1.073-.317-1.089-1.057-.017-.756,0-1.513,0-2.361M36.9,48.093c.789,0,1.507,0,2.225,0,.879,0,1.189.315,1.193,1.195,0,.732,0,1.463,0,2.221h1.933c0-.755,0-1.471,0-2.186.005-.922.309-1.227,1.223-1.231.73,0,1.46,0,2.2,0v-1.93c-.724,0-1.4,0-2.079,0-1.066,0-1.343-.281-1.344-1.354q0-1.035,0-2.07H40.324c0,.766,0,1.483,0,2.2,0,.909-.313,1.218-1.233,1.224-.715,0-1.43,0-2.185,0Z" fill="#b37978"/>
    <path id="Path_159" data-name="Path 159" d="M15.173,39.419c.155.153.461.33.572.59a.664.664,0,0,1-.4.913c-.34.139-.7.226-1.051.344a7.3,7.3,0,0,0-4.423,3.742c-.285.571-.735.769-1.167.553s-.505-.674-.2-1.273a9.127,9.127,0,0,1,6.344-4.808c.056-.013.114-.022.327-.061" fill="#b37978"/>
    <path id="Path_160" data-name="Path 160" d="M7.034,49.7c.121-.716.227-1.486.389-2.243a.7.7,0,0,1,.876-.575.7.7,0,0,1,.631.832c-.086.752-.213,1.5-.35,2.241a.726.726,0,0,1-.869.664c-.493-.063-.667-.407-.677-.919" fill="#b37978"/>
  </g>
</svg>
