<svg xmlns="http://www.w3.org/2000/svg" xmlns:xlink="http://www.w3.org/1999/xlink" width="92.782" height="109.743" viewBox="0 0 92.782 109.743">
  <defs>
    <clipPath id="clip-path">
      <rect id="Rectangle_1559" data-name="Rectangle 1559" width="92.782" height="109.743" transform="translate(-5 -3)" fill="#b37978"/>
    </clipPath>
  </defs>
  <g id="Group_12564" data-name="Group 12564" transform="translate(5 3)">
    <g id="Group_12559" data-name="Group 12559" clip-path="url(#clip-path)">
      <path id="Path_97" data-name="Path 97" d="M54.143,5.878a.37.37,0,0,0,.112.193.463.463,0,0,0,.411,0c2.974-.9,6.135.684,8.184,2.8,2.2,2.265,3.568,5.182,5.326,7.8a30.681,30.681,0,0,0,8.036,8.144c1.771,1.222,3.9,2.655,3.88,4.807a5.4,5.4,0,0,1-1.517,3.209,25.855,25.855,0,0,1-8.495,6.714c6.3,6.582,12.9,13.739,14.406,22.726a23.363,23.363,0,0,1-8.129,21.539c-1.162.945-2.482,1.862-2.987,3.271a7.042,7.042,0,0,0-.1,3.257q.679,5.37,1.361,10.741c.1.793.133,1.754-.519,2.217a2.244,2.244,0,0,1-1.313.278l-35.418.163a27.651,27.651,0,0,1-8.125-.77c-4.045-1.221-7.335-4.256-9.755-7.721a30.17,30.17,0,0,1-5.256-20.324,28.957,28.957,0,0,1,9.688-18.579L9.722,49.6a4.74,4.74,0,0,1-2.364-1.83c-.713-1.378.066-3.025.833-4.374q6.653-11.7,13.39-23.35,1.685-2.913,3.374-5.822c1.01-1.739,1.966-4.385,3.378-5.8,2.349-2.36,7.732-2.639,10.823-2.293l.04.005c-.763-.088-.011-3.459.093-3.856.154-.587.38-1.693.924-2.069,1.092-.755,1.78.665,1.827,1.682A12.8,12.8,0,0,0,42.1,4.442C42.466,5.9,43.93,6.754,45,7.819,47.776,10.591,48,15.136,50.579,18.1a8.3,8.3,0,0,0,7.957,2.584,6.052,6.052,0,0,1,.116-3,1.165,1.165,0,0,1,.307-.564c.713-.614,1.955.992,2.327,1.428a4.663,4.663,0,0,0,1.76,1.477,1.615,1.615,0,0,0,2.021-.613,2.192,2.192,0,0,0-.113-1.67A14.217,14.217,0,0,0,51.57,8.69c-.023-1.652-.283-3.3-.3-4.96A7.366,7.366,0,0,1,51.441.938c.552-1.215,1.936-.805,2.45.378A4.641,4.641,0,0,1,54.1,3.568a6.672,6.672,0,0,0,.035,2.274l.01.036M41.324,10.227c-.015.016-.03.034-.045.051-.883,1.058.432,5.017.521,6.314a14.348,14.348,0,0,1-3.674,10.526c-1.381,1.511-3.132,2.786-3.917,4.677a10.949,10.949,0,0,0-.572,4.1q-.031,2.882-.065,5.762a7.847,7.847,0,0,0,.566,3.717,7.289,7.289,0,0,0,2.15,2.276,52.269,52.269,0,0,0,25.591,10.5,7.344,7.344,0,0,1,2.959.756,3.411,3.411,0,0,1-1.349,6.309l6.641,5.156a8.314,8.314,0,0,1,3.071,3.5c.521,1.487-.159,3.5-1.708,3.795A4.147,4.147,0,0,1,69.55,77.4l-4.54-1.376A39.692,39.692,0,0,1,57.7,73.275a65.427,65.427,0,0,1-5.851-3.887c-6.207-4.237-13.27-7.019-20.266-9.766a7.751,7.751,0,0,0-4.389-.79,6.642,6.642,0,0,0-3.136,2.022,24.566,24.566,0,0,0-6.886,15.7,27.265,27.265,0,0,0,4.6,16.586,17,17,0,0,0,6.981,6.347c3.1,1.37,6.61,1.363,10,1.334l33.028-.29L69.815,89.207l-10.65,6.082c-1.537.878-3.7,1.672-4.868.345,4.6-4.439,10.467-7.289,15.745-10.9S80.3,76.281,81.581,70.016c1.272-6.239-1.413-12.669-5.153-17.823s-8.6-9.35-12.323-14.494c2.408-2.32,6.742-3.136,9.727-4.5,1.3-.589,2.818-1.56,2.631-2.971a3.337,3.337,0,0,0-.8-1.525A18.114,18.114,0,0,0,70.8,23.936a6.767,6.767,0,0,0-6.537-.454c.62,2.653,3.3,4.67,3.246,7.394-.054,2.57-2.55,4.394-4.962,5.286a19.124,19.124,0,0,1-9.11,1.016,5.3,5.3,0,0,1-3.254-1.432c-1.353-1.391,5.864-1.687,6.828-1.638,2.474.123,5.437-.348,6.5-2.588,1.225-2.589-1.119-5.59-3.772-6.67s-5.658-1.065-8.291-2.193a10.366,10.366,0,0,1-5.758-6.445,31.584,31.584,0,0,0-1.1-3.989c-.4-.873-2.205-3.142-3.266-2M63.565,61.762l-.081-.8c-2.464,0-4.93.058-7.391-.026a7.493,7.493,0,0,1-3.12-.6C42.565,54.927,32.2,49.438,21.817,43.981c-1.589-.835-2.094-1.861-.723-3.315,4.442-4.707,8.721-9.582,13.375-14.069,4.536-4.374,5.97-9.459,3.446-14.574-1.3-2.643-3.785-3.423-6.254-1.747a8.519,8.519,0,0,0-2.4,2.783C23.317,23.347,17.479,33.7,11.493,43.96c-1.181,2.023-.976,2.884,1.242,3.848,12.8,5.562,25.537,11.271,38.294,16.934,2.4,1.064,5.109,1.735,5.957,4.762a1.163,1.163,0,0,0,.653.671c3.916,1.338,7.845,2.641,11.77,3.953a2.27,2.27,0,0,0-.976-1.311c-2.974-2.135-5.985-4.221-8.9-6.427-.651-.492-1.53-1.639-1.344-2.067.311-.715,1.34-1.219,2.168-1.584a26.1,26.1,0,0,1,3.212-.977M24.285,41.768l6.389,3.316V35.052l-.562-.121-5.827,6.837" fill="#b37978"/>
      <path id="Path_98" data-name="Path 98" d="M14.973,3.074a4.988,4.988,0,0,1,5.05,4.791,5.319,5.319,0,0,1-5.105,5.122A5.377,5.377,0,0,1,9.854,7.812a5.016,5.016,0,0,1,5.119-4.738" fill="#b37978"/>
      <path id="Path_100" data-name="Path 100" d="M8.833,64.548,6.756,62.282a.782.782,0,0,1-.027-1.024l1.947-2.375-2.2-1.8L4.357,59.666,2.1,57.2,0,59.122l2.077,2.266a.782.782,0,0,1,.03,1.024L.157,64.789l2.2,1.8,2.117-2.583,2.261,2.464Z" transform="translate(-1.188 -5.209)" fill="#b37978"/>
      <path id="Path_101" data-name="Path 101" d="M7.486,25.573a1.629,1.629,0,1,1-1.629-1.629,1.629,1.629,0,0,1,1.629,1.629" transform="translate(-1 -2)" fill="#b37978"/>
    </g>
    <path id="Path_102" data-name="Path 102" d="M14.952,6.057a1.986,1.986,0,0,1,2.011,1.908,2.117,2.117,0,0,1-2.033,2.04,2.141,2.141,0,0,1-2.017-2.061,2,2,0,0,1,2.039-1.887" fill="#b37978"/>
  </g>
</svg>
