<svg xmlns="http://www.w3.org/2000/svg" width="119.747" height="107.275" viewBox="0 0 119.747 107.275">
  <path id="Path_87" data-name="Path 87" d="M119.746,64.378a11.031,11.031,0,0,0-1.383,1.348,3.093,3.093,0,0,0-.472,1.357,14.4,14.4,0,0,1-5.069,9.206C106.9,81.306,98.2,78.725,96.305,71.373c-1.023-3.968.1-7.551,2.328-10.846a1.889,1.889,0,0,1,2.681-.492,1.865,1.865,0,0,1,.449,2.685,11.1,11.1,0,0,0-1.943,6.143,6.186,6.186,0,0,0,9.008,5.462c3.6-1.811,6.08-6.755,5.093-10.519a8.314,8.314,0,0,0-1.83-3.157,2.6,2.6,0,0,1-.768-2.84,18.145,18.145,0,0,1-3.274-.04,16.218,16.218,0,0,1-3.628-1.2,1.823,1.823,0,0,1-.838-2.58,1.979,1.979,0,0,1,2.5-.86,15.778,15.778,0,0,0,3.812.851,3.127,3.127,0,0,0,2.937-2.014c2.687-6.22,4.083-12.617,2.025-19.321a12.467,12.467,0,0,0-14.833-8.9c-1.56.3-3.084.79-4.615,1.224a11.891,11.891,0,0,0-1.325.539c.443,2.058.994,4.008,1.266,5.995a40.888,40.888,0,0,1-2,18.312A73.624,73.624,0,0,1,80.958,72.447a1.356,1.356,0,0,0-.037,1.983c2.083,2.9,2.684,6.279,2.727,9.749a48.252,48.252,0,0,1-4.327,19.59,82.981,82.981,0,0,1-3.93,7.686,5.383,5.383,0,0,1-5.763,2.934,5.953,5.953,0,0,1-5.071-4.119c-.114-.306-.521-.712-.8-.717-2.749-.054-5.5-.033-8.4-.033a4.976,4.976,0,0,0-.191.516,5.774,5.774,0,0,1-5,4.325,5.435,5.435,0,0,1-5.765-2.721,55.6,55.6,0,0,1-6.949-16.632c-.587-2.412-.9-4.894-1.264-7.355-.206-1.379.439-2.286,1.563-2.426,1.247-.156,2.049.53,2.207,1.968a55.04,55.04,0,0,0,6.771,20.852c.207.375.434.739.662,1.1.9,1.422,1.812,1.773,2.976,1.149,1.135-.61,1.361-1.506.754-3.01-1.25-3.105-2.647-6.161-3.711-9.328a66.975,66.975,0,0,1-2.285-8.786A15.61,15.61,0,0,1,47.4,78.088c2.07-3.511,1.837-5.543-1.012-8.444C39.967,63.106,36.651,55.122,35.3,46.18a8.855,8.855,0,0,1,1.311-6.8,7.944,7.944,0,0,1,8.491-3.39A76.638,76.638,0,0,0,74.6,35.982a8.343,8.343,0,0,1,9.881,9.625c-1.054,7.464-3.4,14.385-8.056,20.4-1.118,1.446-2.358,2.805-3.613,4.136-2.147,2.276-2.49,4.633-.851,7.326,1.955,3.213,3.267,6.652,2.76,10.417a77.327,77.327,0,0,1-2.1,9.188,1.809,1.809,0,0,1-2.468,1.15,1.9,1.9,0,0,1-1.116-2.4c.362-1.392.825-2.757,1.217-4.141a14.786,14.786,0,0,0-1.7-12.436,9.069,9.069,0,0,1,1.41-11.668c6.282-6.256,9.569-13.906,10.717-22.579.457-3.45-2.1-5.749-5.648-5.2-2.883.446-5.77.909-8.672,1.181a75.024,75.024,0,0,1-21.29-1.088c-4.13-.8-6.544,1.569-5.924,5.738,1.108,7.447,3.7,14.217,8.733,19.931.619.7,1.277,1.368,1.924,2.046A9.209,9.209,0,0,1,51.135,79.3a14.079,14.079,0,0,0-2.041,10.726,50.207,50.207,0,0,0,1.724,6.054c.964,2.712,2.068,5.376,3.194,8.026a2.086,2.086,0,0,0,1.209,1.032,20.523,20.523,0,0,0,10.285.169c2.3-.519,3.256.415,2.782,2.717a2,2,0,0,0,1.222,2.374,1.931,1.931,0,0,0,2.586-.928,52.911,52.911,0,0,0,6.026-14.007,38.111,38.111,0,0,0,1.666-11.4c-.1-3.443-.776-6.642-3.511-9.087-.889-.795-.736-1.761.077-2.929,2.779-3.993,5.741-7.881,8.229-12.051a49.383,49.383,0,0,0,7.009-20.029c.9-8.267-.674-15.791-7.21-21.584A26.829,26.829,0,0,0,71.528,12.32c-9.117-1.818-18.223-1.842-27.135,1.046-8.567,2.776-14.33,8.346-16.049,17.461-1.187,6.294-.134,12.41,1.885,18.394A71.713,71.713,0,0,0,41.921,70.267c.525.678,1.086,1.329,1.595,2.019A1.962,1.962,0,0,1,43.3,75.1a1.849,1.849,0,0,1-2.776-.421c-1.989-2.6-4.027-5.171-5.837-7.892a62.479,62.479,0,0,1-10-23.6,33.786,33.786,0,0,1,.9-17.087c.048-.143.075-.293.111-.432-8.368-4.2-19.535-2.857-21.548,9.865-.894,5.646.368,11,2.579,16.17a3.8,3.8,0,0,0,4.518,2.235,17.578,17.578,0,0,0,2.314-.779,1.942,1.942,0,0,1,2.583.877,1.8,1.8,0,0,1-.918,2.553A34.434,34.434,0,0,1,10.785,57.9c-.506.128-.931.112-1.1.78a1.972,1.972,0,0,1-.864,1.041c-2.96,1.79-3.734,4.443-3.039,7.65A10.4,10.4,0,0,0,9.59,73.5,6.277,6.277,0,0,0,19.8,67.464c-.1-.652-.31-1.29-.394-1.943A1.878,1.878,0,0,1,20.843,63.3a1.915,1.915,0,0,1,2.26,1.38c2.779,8.527-3.624,14.771-10.323,14.177a10.326,10.326,0,0,1-5.81-2.5,14.26,14.26,0,0,1-5.138-9.283A1.87,1.87,0,0,0,.87,65.389a1.755,1.755,0,0,1-.4-2.735c.29-.363.668-.656.977-1.005,2.244-2.53,3.136-5.268,1.669-8.582A34.528,34.528,0,0,1,.057,38.778a23.025,23.025,0,0,1,1.936-9.433c3.193-7.073,9.628-10.62,17.75-9.476a51.19,51.19,0,0,1,6.748,1.8c.5.142.9.4,1.279-.235,4.151-6.914,10.515-10.739,18.137-12.547a57.163,57.163,0,0,1,30.355.7C82.848,11.6,88.25,15.325,91.868,21.335c.39.648.773.558,1.344.331a25.187,25.187,0,0,1,8.957-1.978c8.061-.116,14.059,4.207,16.376,11.974.584,1.958.81,4.023,1.2,6.039v2.808a4.025,4.025,0,0,0-.207.781,33.965,33.965,0,0,1-2.932,11.7c-1.535,3.452-.568,6.256,1.813,8.843.469.51.885,1.069,1.326,1.606Z" transform="translate(0.001 -7.177)" fill="#b37978"/>
</svg>
