<svg xmlns="http://www.w3.org/2000/svg" width="99.978" height="119.716" viewBox="0 0 99.978 119.716">
  <g id="Group_12567" data-name="Group 12567" transform="translate(-920.876 -1093.001)">
    <path id="Path_88" data-name="Path 88" d="M379.08,0c1.013.236,2.034.444,3.039.712,5.95,1.585,8.952,5.39,9.074,11.542a1.09,1.09,0,0,0,.833,1.176c11.448,4.474,18.272,12.87,20.786,24.806a23.624,23.624,0,0,1-2.329,16.755,14.076,14.076,0,0,1-1.142,2.034,13.286,13.286,0,0,0-2.689,8.82,2.478,2.478,0,0,0,.5,1.428c.736.9,1.6,1.7,2.389,2.566.867.944.922,1.994.174,2.68s-1.733.558-2.652-.4c-1.536-1.6-3.056-3.213-4.68-4.924l-6.757,6.393L409.554,88.28l6.742-6.4c-1.111-1.179-2.2-2.226-3.149-3.394a2.672,2.672,0,0,1-.63-1.844c.225-1.348,1.734-1.659,2.822-.685,1.19,1.064,2.379,2.129,3.638,3.257,2.944-1.592,3.871-.959,6.842,2.831,2.535,3.234-.981,4.723-2.587,6.769,2.634,2.779,5.255,5.546,7.965,8.407.586-.533,1.111-1.034,1.66-1.508a1.757,1.757,0,0,1,2.511-.051,1.631,1.631,0,0,1-.194,2.482q-5.151,4.935-10.346,9.822a1.721,1.721,0,0,1-2.505.08,1.741,1.741,0,0,1,.169-2.5c.486-.5.993-.983,1.6-1.582l-8.006-8.45c-.749.7-1.423,1.331-2.1,1.959-1.859,1.724-3.552,1.688-5.292-.112-.46-.477-.913-.961-1.368-1.442-1.782-1.882-1.873-3.136-.3-5.394L399.8,82.9c-.9,1.176-1.654,2.327-2.578,3.314-2.1,2.244-4.3,4.392-6.417,6.618a2.985,2.985,0,0,0-.748,1.449c-.191,1.069-.217,2.168-.326,3.253a4.082,4.082,0,0,0,3.224,4.715c4.713,1.343,9.435,2.655,14.153,3.98,1.423.4,2.854.77,4.266,1.2a11.132,11.132,0,0,1,7.872,9.884c.121,1.667-.534,2.394-2.212,2.394q-39.467.006-78.933,0c-1.667,0-2.341-.755-2.2-2.4a11.04,11.04,0,0,1,8.11-9.927c5.977-1.728,11.977-3.38,17.962-5.082,2.707-.769,3.5-2.3,3.465-5.123-.03-2.672-1.123-4.384-3.053-6.2-6.779-6.368-11.669-13.958-13.537-23.233A29.037,29.037,0,0,1,348.274,63a6.407,6.407,0,0,0-.99-3.278c-1.834-2.984-3.8-5.934-4.651-9.381-1.978-8.04-.532-15.621,3.478-22.742a32.806,32.806,0,0,1,16.766-14.435c.538-.22,1.057-.315,1.057-1.135,0-7.169,4.845-10.423,9.858-11.525.75-.165,1.5-.338,2.247-.507ZM348.9,55.728c.151-.441.248-.685.318-.935a42.411,42.411,0,0,1,5.9-12.769c1.373-1.979,2.945-3.823,4.494-5.673a1.669,1.669,0,0,1,2.4-.178,1.708,1.708,0,0,1,.076,2.419c-.191.245-.415.465-.622.7a42.721,42.721,0,0,0-6.37,9.474c-3.386,6.8-4.666,13.817-2.257,21.234a42.493,42.493,0,0,0,16.7,22.454c4.078,2.805,8.63,3.106,13.292,1.435a21.98,21.98,0,0,0,6.771-4.5,43.779,43.779,0,0,0,7.74-9.028c-.321-.352-.577-.642-.843-.923q-5.268-5.561-10.539-11.118c-.907-.954-1.557-2.04-1.058-3.362a1.537,1.537,0,0,0-.5-2.009,8.841,8.841,0,0,1-.812-.84c-2.331-2.443-2.476-3.4-.943-6.434-.212-.245-.428-.516-.666-.767-2.01-2.123-4.038-4.229-6.03-6.368a1.681,1.681,0,0,1-.077-2.5,1.751,1.751,0,0,1,2.5.178c.5.489.973,1.011,1.457,1.519l5.359,5.634c2.553-1.464,4.017-1.242,6,.834a19.7,19.7,0,0,0,1.544,1.593,1.4,1.4,0,0,0,1.084.311,3.39,3.39,0,0,1,3.7,1.057q2.526,2.682,5.074,5.342c.217.228.47.422.972.867a21.976,21.976,0,0,0-.014-2.642,35.684,35.684,0,0,0-4.693-13.349c-4.846-8.244-11.926-14.088-20.178-18.648a1.856,1.856,0,0,0-1.306-.06,33.853,33.853,0,0,0-9.056,4.519c-1.083.742-2.093.65-2.682-.189-.615-.875-.387-1.853.756-2.55,1.958-1.194,3.968-2.3,5.959-3.442.349-.2.713-.37,1.282-.663a45.824,45.824,0,0,0-18.675-3.083,3.454,3.454,0,0,0-2.667,1.368,29.515,29.515,0,0,0-7.138,17.774,20.576,20.576,0,0,0,3.738,13.32m66.761,60.528a7.617,7.617,0,0,0-5.431-5.634c-6.091-1.753-12.206-3.424-18.3-5.16a7.337,7.337,0,0,1-5.588-7.758c.018-.5,0-.994,0-1.656a18.611,18.611,0,0,1-17.539-.009c0,.693-.018,1.225,0,1.755a7.388,7.388,0,0,1-5.451,7.639c-1.155.345-2.322.65-3.483.976-4.979,1.4-9.967,2.769-14.935,4.208a7.588,7.588,0,0,0-5.451,5.639Zm-9.633-60.571c.2-.157.311-.21.367-.3a20.473,20.473,0,0,0,3.56-10.966c-.073-11.138-4.844-19.742-14.4-25.48-6.624-3.977-13.991-5.093-21.6-4.66-5.365.306-10.464,1.587-14.9,4.832-.23.168-.438.367-.91.767,11.235.246,20.861,4.117,29.535,10.583,8.71,6.492,15.348,14.507,18.351,25.225M387.8,12.081A7.273,7.273,0,0,0,384.955,5.7a11.5,11.5,0,0,0-5.732-2.129,12.755,12.755,0,0,0-8.516,1.765c-2.328,1.447-3.674,4.191-3.2,6.459a47.326,47.326,0,0,1,20.3.287m12.251,52.654-5.117-5.387-6.747,6.417,5.117,5.367,6.747-6.4m21.111,17.188-11.84,11.241,2.122,2.062L423.21,84.069c-.7-.74-1.336-1.4-2.045-2.146m-2.639,11.259,8.049,8.485,2.192-2.094L420.729,91.1l-2.2,2.085M387.72,61.53l2.975-2.814c-2.6-3.352-2.788-3.379-5.167-.879-.053.056-.156.1-.161.162-.028.336-.181.795-.021.988.711.858,1.514,1.639,2.374,2.543" transform="translate(585 1093)" fill="#b37978"/>
    <path id="Path_89" data-name="Path 89" d="M377.289,80.062a7.472,7.472,0,0,1-5.887-3.073,1.678,1.678,0,0,1,.127-2.489,1.738,1.738,0,0,1,2.474.366c2.308,2.478,4.837,2.476,7.1-.007a1.744,1.744,0,0,1,2.467-.434,1.721,1.721,0,0,1,.118,2.581,7.767,7.767,0,0,1-6.4,3.056" transform="translate(585 1093)" fill="#b37978"/>
    <path id="Path_90" data-name="Path 90" d="M366.465,61.259a6.427,6.427,0,0,1-4.273-2.553c-.8-.979-.786-1.9,0-2.582.761-.669,1.7-.532,2.543.368,1.788,1.917,3.661,1.91,5.507-.02a1.654,1.654,0,0,1,2.457-.337,1.762,1.762,0,0,1,.116,2.508c-1.176,1.59-3.269,2.612-6.345,2.616" transform="translate(585 1093)" fill="#b37978"/>
  </g>
</svg>
