<svg xmlns="http://www.w3.org/2000/svg" width="107.919" height="108.054" viewBox="0 0 107.919 108.054">
  <g id="Group_12566" data-name="Group 12566" transform="translate(-1239.612 -1102.289)">
    <path id="Path_95" data-name="Path 95" d="M698.688,93.1a9.818,9.818,0,0,1-2.284-.4,2.509,2.509,0,0,0-2.547.455,54.563,54.563,0,0,0-11.288,9.369c-4.455,4.64-9.054,9.141-13.595,13.7-1.49,1.5-2.205,1.49-3.7.006q-4.692-4.654-9.385-9.308c-1.71-1.7-1.7-2.282.036-4.022,5.926-5.929,11.959-11.757,17.728-17.836,2.226-2.345,3.868-5.249,5.731-7.93a1.49,1.49,0,0,0-.007-1.079,9.029,9.029,0,0,1,2.315-9.48q26.23-26.293,52.542-52.5c4.852-4.8,10.9-5.959,17.306-3.6s10.076,7.148,10.869,13.956a16.1,16.1,0,0,1-4.962,13.787q-25.8,25.818-51.6,51.629a10.124,10.124,0,0,1-7.161,3.257m47.817-80.546a13.652,13.652,0,0,0-9.784,4.045q-26.168,26.175-52.333,52.353a5.631,5.631,0,0,0,.014,8.417c3.378,3.4,6.755,6.808,10.186,10.156a6.725,6.725,0,0,0,2.417,1.557c2.477.843,4.517,0,6.33-1.817Q729.148,61.4,755,35.567a15.527,15.527,0,0,0,1.273-1.37c3.377-4.312,4.116-9.04,1.795-14.015a12.762,12.762,0,0,0-11.563-7.626m-79.51,100.128,17.04-16.965L676.284,88l-16.949,17.011,7.66,7.669m11.724-28,8.594,8.525,4.712-3.151-10.065-10.2-3.241,4.829" transform="translate(585 1093)" fill="#b37978"/>
    <path id="Path_96" data-name="Path 96" d="M705.339,58.455c-.021-3.557.782-5.68,2.455-7.4,3.184-3.265,6.379-6.523,9.673-9.677a9.262,9.262,0,0,1,13.2,12.985c-3.178,3.377-6.456,6.671-9.845,9.834a8.676,8.676,0,0,1-9.989,1.614c-3.62-1.591-5.39-4.551-5.489-7.36m14.5,1.617-7.964-7.962c-1.982,1.6-3.371,3.619-2.68,6.467a5.372,5.372,0,0,0,4.469,4.252c2.737.522,4.684-.858,6.175-2.757M727.877,52a5.076,5.076,0,0,0,1.752-4.7,5.428,5.428,0,0,0-4.048-4.781,5.527,5.527,0,0,0-5.67,1.415L727.877,52m-5.341,5.064c.873-.74,1.725-1.462,2.431-2.062l-7.719-7.846-2.429,2.158,7.717,7.75" transform="translate(585 1093)" fill="#b37978"/>
  </g>
</svg>
