<svg xmlns="http://www.w3.org/2000/svg" width="117.41" height="119.718" viewBox="0 0 117.41 119.718">
  <g id="Group_12565" data-name="Group 12565" transform="translate(-1567.264 -1093.001)">
    <path id="Path_91" data-name="Path 91" d="M1067.595,0c1.1.2,2.209.389,3.308.611,5.84,1.183,10.563,4.355,14.58,8.566,2.273,2.383,4.2,5.1,6.241,7.7a3.992,3.992,0,0,1,.638,3.977,2.417,2.417,0,0,0,.356,2.282c2.456,3.892,4.83,7.841,5.822,12.411a43.52,43.52,0,0,1-.69,22.389,8.947,8.947,0,0,1-3.368,4.791,2.832,2.832,0,0,0-.7,1.625A43.049,43.049,0,0,1,1087.73,79.3a32.007,32.007,0,0,1-12.008,11.031c-1.434.746-1.4,1.707-1.384,2.919A2.618,2.618,0,0,0,1076,95.831c1.641.714,3.331,1.332,4.912,2.159a2.131,2.131,0,0,1,1.018,1.612c-.03.529-.692,1.109-1.208,1.487-.25.183-.839.046-1.209-.106-1.764-.721-3.529-1.45-5.25-2.266a5.477,5.477,0,0,1-3.183-4.331c-.083-.531-.146-1.064-.232-1.705a21.2,21.2,0,0,1-13.881-.011,4.58,4.58,0,0,0-.148.731,5.952,5.952,0,0,1-4.051,5.713c-4.945,2.094-9.88,4.21-14.822,6.312a7.114,7.114,0,0,0-4.776,7.16c0,1.168,0,2.336,0,3.613h61.255c.757-5.277.051-8.932-4.786-10.9a25.937,25.937,0,0,1-2.568-1.116,1.521,1.521,0,0,1-.816-1.966,1.484,1.484,0,0,1,1.919-1.1c4.224,1.39,8.057,3.294,9.393,8.057a9.586,9.586,0,0,1,.392,2.29c.057,2.1.044,4.21.027,6.314-.011,1.306-.626,1.891-1.947,1.939-.234.008-.468,0-.7,0h-62.915c-2.179,0-2.666-.479-2.646-2.692a60.051,60.051,0,0,1,.155-6.185,9.9,9.9,0,0,1,6.292-8.344c4.956-2.165,9.948-4.247,14.923-6.371a3.552,3.552,0,0,0,2.237-4.71c-.1-.329-.554-.605-.9-.795a33.981,33.981,0,0,1-13.2-12.6,1.693,1.693,0,0,1,.43-2.536,1.761,1.761,0,0,1,2.4.724c.132.192.253.392.377.59a29.789,29.789,0,0,0,9.16,9.374c3.328,2.143,6.819,3.9,10.868,4.255a17.009,17.009,0,0,0,8.208-1.361c9.93-4.194,15.757-11.856,18.953-21.952a13.834,13.834,0,0,0-1.278-11.143,29.959,29.959,0,0,0-12.913-12.5c-3.693-1.98-7.623-3.517-11.439-5.269-1.2-.552-2.367-1.59-3.566-1.616-1.14-.025-2.281,1.035-3.461,1.524a36.523,36.523,0,0,0-9.72,5.491c-4.7,3.936-7.346,9.082-9,14.854-.3,1.038-.781,2.023-1.083,3.06a3.043,3.043,0,0,0-.01,1.466c.383,1.667.834,3.319,1.261,4.975.1.376.245.743.3,1.124a1.563,1.563,0,0,1-1.121,1.923,1.587,1.587,0,0,1-2.074-1.03,6.421,6.421,0,0,1-.369-1.106,24.538,24.538,0,0,0-4.26-10.1c-1.762-2.322-2.221-5.286-2.495-8.178a39.81,39.81,0,0,1,1.287-15.384c.022-.075.044-.15.071-.223.92-2.472,2.155-4.567,5.305-4.319.129-1.2.214-2.322.378-3.434a6.508,6.508,0,0,1,3.06-4.646c1.894-1.2,3.941-2.157,5.944-3.175.5-.253.941-.349.928-1.1-.134-7.8,5.174-15.065,13.985-17.342,1.537-.4,3.111-.65,4.668-.969Zm-7.942,4.259c-.019.123-.039.246-.059.369a13.824,13.824,0,0,0,1.852,1.722c1.567,1.005,3.178,1.954,4.832,2.809,2.521,1.3,5.139,2.421,7.628,3.779a13.121,13.121,0,0,1,5.148,4.981c.671,1.161.522,2.091-.406,2.636-.885.52-1.652.148-2.467-.825a21.407,21.407,0,0,0-3.405-3.46,23.3,23.3,0,0,0-4.379-2.424c-4.459-2.031-9.092-3.77-12.107-7.981-.366.207-.646.345-.9.515a11.952,11.952,0,0,0-1.143.81c-4.068,3.436-6.242,7.685-5.111,13.083.708,3.378,3,5.853,5.541,8.043a49.428,49.428,0,0,0,14.589,8.433,49.952,49.952,0,0,1,14.621,8.38,29.218,29.218,0,0,1,8.81,12.162c.21.573.4,1.155.593,1.732l.351.075a22.264,22.264,0,0,0,1.348-3.228,42.476,42.476,0,0,0,.354-19.209c-.93-4.429-3.258-8.224-5.636-11.976a5.091,5.091,0,0,1-.7-4.436,2.528,2.528,0,0,0-.325-1.816,39.163,39.163,0,0,0-7.169-8.427c-4.784-4.328-10.267-6.875-16.84-6.508-1.681.094-3.345.5-5.017.761m-24.912,54.246c.172-.535.3-.89.4-1.253,2.912-10.45,9.279-17.8,19.461-21.754.776-.3,1.512-.707,2.433-1.143-4.667-3.2-8.729-6.671-10.858-11.963A14.77,14.77,0,0,0,1039.8,26a4.017,4.017,0,0,0-1.005,2.163,40.567,40.567,0,0,0,.552,11.506c.205,1.244-.28,2.121-1.335,2.311-.961.173-1.757-.456-1.954-1.692-.276-1.727-.437-3.472-.711-5.2-.053-.335-.36-.827-.624-.881a1.247,1.247,0,0,0-1.015.47,5.57,5.57,0,0,0-.768,1.686,35.388,35.388,0,0,0-.785,16.068,14.073,14.073,0,0,0,2.587,6.071" transform="translate(585 1093)" fill="#b37978"/>
    <path id="Path_92" data-name="Path 92" d="M1005.7,105.757c.392.635.7,1.129,1,1.626.749,1.225.669,2.186-.228,2.769s-1.858.252-2.61-.934c-.979-1.547-1.94-3.105-2.915-4.654-.183-.29-.4-.561-.654-.925l-3.349,2.1a12.8,12.8,0,0,1,.253,3.226c-.314,1.662-4.563,4.431-6.2,4.038a4.2,4.2,0,0,1-2.342-1.5c-2.028-3-3.909-6.1-5.8-9.19a3.046,3.046,0,0,1,1.062-4.532c.583-.39,1.184-.751,1.777-1.124,2.618-1.647,3.613-1.527,5.745.8l3.625-2.264c-.742-1.2-1.448-2.343-2.156-3.485-.533-.861-1.106-1.7-1.592-2.587a1.621,1.621,0,0,1,.593-2.325,1.6,1.6,0,0,1,2.244.566c.442.636.842,1.3,1.312,2.031.382-.217.718-.392,1.039-.593q12.73-7.96,25.452-15.936c1.6-1.008,3.128-1.309,4.754-.089a1.084,1.084,0,0,0,.906-.018,14.018,14.018,0,0,0,1.394-.849,3.528,3.528,0,0,1,5.244,1.18c.194.285.4.563.661.932l4.914-3.414c.32-.222.63-.463.968-.653a1.686,1.686,0,0,1,2.367.469,1.567,1.567,0,0,1-.457,2.266c-1.635,1.2-3.311,2.335-4.969,3.5-.314.222-.622.454-1.025.749.268.462.52.884.761,1.313a3.506,3.506,0,0,1-1.157,4.9,4.64,4.64,0,0,1-.6.368,2.006,2.006,0,0,0-1.38,2.411c.23,1.466-.8,2.415-2,3.159q-9.077,5.65-18.134,11.33c-2.8,1.753-5.6,3.512-8.514,5.341m25.375-19.873c-2.244-3.586-4.4-7.036-6.616-10.572l-5.945,3.718c.644,1.033,1.211,1.912,1.747,2.809.634,1.062.505,2.026-.313,2.575-.861.577-1.849.28-2.556-.8-.591-.9-1.152-1.826-1.76-2.791l-4.475,2.821,6.61,10.56,13.308-8.322M1014.9,96l-6.618-10.574-3.639,2.27c.656,1.051,1.226,1.933,1.764,2.835a1.708,1.708,0,1,1-2.845,1.813c-.6-.907-1.162-1.834-1.8-2.838l-4.484,2.8c2.218,3.546,4.377,7,6.612,10.574L1014.9,96m-26.615,3.037c-.7.432-1.208.792-1.758,1.076-.638.328-.693.673-.295,1.273.966,1.457,1.864,2.959,2.794,4.44.779,1.241,1.564,2.477,2.38,3.769l2.5-1.575-5.621-8.983m44.12-17.427,2.3-1.448-3.512-5.61-2.314,1.43c1.216,1.94,2.326,3.709,3.53,5.628m-37.59,21.462c1.3-.823,2.475-1.562,3.732-2.357l-1.687-2.662-3.728,2.341,1.683,2.678" transform="translate(585 1093)" fill="#b37978"/>
    <path id="Path_93" data-name="Path 93" d="M1055.829,67.178a5.2,5.2,0,0,1-5.276-4.751c-.065-1.237.4-1.944,1.365-2.093,1.06-.163,1.75.362,1.974,1.635a1.971,1.971,0,0,0,1.322,1.749,1.8,1.8,0,0,0,2.387-1.536c.171-.893.411-1.684,1.465-1.848a1.616,1.616,0,0,1,1.945,1.637,5.185,5.185,0,0,1-5.182,5.207" transform="translate(585 1093)" fill="#b37978"/>
    <path id="Path_94" data-name="Path 94" d="M1071.988,67.177a5.23,5.23,0,0,1-5.2-4.857,1.7,1.7,0,0,1,1.381-1.985,1.633,1.633,0,0,1,1.963,1.505c.247,1.295.91,1.992,1.9,2s1.672-.7,1.913-1.98a1.632,1.632,0,0,1,1.948-1.524,1.706,1.706,0,0,1,1.4,1.972,5.232,5.232,0,0,1-5.3,4.873" transform="translate(585 1093)" fill="#b37978"/>
  </g>
</svg>
