<svg xmlns="http://www.w3.org/2000/svg" width="226.269" height="46.925" viewBox="0 0 226.269 46.925">
  <g id="Group_12616" data-name="Group 12616" transform="translate(-153 -5665.306)">
    <g id="Group_12613" data-name="Group 12613" transform="translate(153 5665.306)">
      <g id="Group_12612" data-name="Group 12612" transform="translate(0 0)">
        <path id="Path_70" data-name="Path 70" d="M357.045,90.668l-.091.069a10.01,10.01,0,0,1-2.655,1.348l-1.947.588a26.638,26.638,0,0,1-6.313.7,17.7,17.7,0,0,1-17.492-17.863c0-9.3,7.781-14,8.668-14.5l.57-.325.4.522a11.906,11.906,0,0,0,6.381,4.5,8.936,8.936,0,0,0,7-1.5.489.489,0,0,0,.216-.314.506.506,0,0,0-.074-.379.5.5,0,0,0-.309-.208.486.486,0,0,0-.369.069,7.976,7.976,0,0,1-6.232,1.366c-3.913-.883-6.336-4.856-6.36-4.9a.521.521,0,0,0-.433-.237.432.432,0,0,0-.1.011,15.694,15.694,0,0,0-5.8,4.338,17.291,17.291,0,0,0-4.552,11.553,19.183,19.183,0,0,0,5.6,13.463,18.13,18.13,0,0,0,12.886,5.384c8.112,0,11.441-2.767,11.579-2.885a.5.5,0,0,0-.573-.806" transform="translate(-327.554 -47.434)" fill="#fff"/>
        <path id="Path_71" data-name="Path 71" d="M379.3,12.776l-.511-.28.144-.564a9.562,9.562,0,0,0-1.374-8.013A9.21,9.21,0,0,0,370.049,0a9.881,9.881,0,0,0-8.661,4.794.5.5,0,0,0-.027.366.485.485,0,0,0,.241.29.5.5,0,0,0,.382.037.452.452,0,0,0,.235-.157l.051-.081,1.4-1.736A9.011,9.011,0,0,1,370.049.992a8.2,8.2,0,0,1,6.695,3.494,8.792,8.792,0,0,1,.956,8.11.493.493,0,0,0,.265.62c.349.148,8.559,3.735,8.559,12.646a13.555,13.555,0,0,1-4.156,9.608,18.322,18.322,0,0,1-12.689,5.207c-8.09,0-11.774-5.576-11.774-10.756a4.666,4.666,0,0,1,1.319-3.46,7.651,7.651,0,0,1,5.008-1.855,4.855,4.855,0,0,1,4.608,3.257.5.5,0,0,0,.589.324,7.447,7.447,0,0,1,3.652.12c1.56.468,3.609,1.741,4.515,5.15a.49.49,0,0,0,.229.3.474.474,0,0,0,.368.051.5.5,0,0,0,.358-.619c-1.679-6.3-6.864-6.285-8.412-6.129l-.5.051-.236-.447a5.9,5.9,0,0,0-5.169-3.055,8.724,8.724,0,0,0-5.7,2.145,5.661,5.661,0,0,0-1.617,4.163,11.708,11.708,0,0,0,3.369,8.236,12.922,12.922,0,0,0,9.4,3.512,19.3,19.3,0,0,0,13.384-5.5,14.589,14.589,0,0,0,4.452-10.308c0-7.738-5.747-11.729-8.22-13.086" transform="translate(-350.916 0)" fill="#fff"/>
      </g>
    </g>
    <g id="Group_12617" data-name="Group 12617" transform="translate(203.399 5671.537)">
      <g id="Group_12556" data-name="Group 12556" transform="translate(0 0)">
        <path id="Path_39" data-name="Path 39" d="M6.987,303.576c3.542,0,5.779.7,7.338,2.186a7.271,7.271,0,0,1,2.136,5.377,8.262,8.262,0,0,1-3.141,6.785c-1.91,1.432-4.347,1.985-7.438,1.985H0v-.7c2.161-.2,2.262-.377,2.262-2.437V306.742c0-2.161-.3-2.262-2.262-2.462v-.7ZM4.448,316.567c0,1.885.8,2.412,2.689,2.412,4.523,0,6.834-3.091,6.834-7.488,0-2.739-.929-4.824-2.914-6.031a7.953,7.953,0,0,0-4.3-1.005,3.559,3.559,0,0,0-1.985.352c-.227.15-.327.427-.327,1.407Z" transform="translate(0 -302.998)" fill="#fff"/>
        <path id="Path_40" data-name="Path 40" d="M112.925,320.111c-.327,0-.6-.025-.93-.05a4.461,4.461,0,0,1-3.921-2.161c-.93-1.282-1.834-2.865-2.638-4.146-.5-.8-.83-.955-2.111-.955h-.88v3.945c0,2.136.276,2.262,2.286,2.463v.7H98.024v-.7c2.086-.226,2.261-.327,2.261-2.463V306.717c0-2.136-.276-2.211-2.261-2.437v-.7h6.408a7.092,7.092,0,0,1,4.02.854,3.755,3.755,0,0,1,1.709,3.317c0,2.161-1.382,3.518-3.241,4.322.452.779,1.533,2.462,2.287,3.593a23.112,23.112,0,0,0,1.985,2.588,3.614,3.614,0,0,0,1.835,1.156Zm-9.273-8.167a4.05,4.05,0,0,0,2.765-.728,3.533,3.533,0,0,0,1.382-3.091,3.384,3.384,0,0,0-3.719-3.669,2.3,2.3,0,0,0-1.332.251c-.226.176-.3.427-.3,1.08v6.156Z" transform="translate(-77.746 -302.998)" fill="#fff"/>
        <path id="Path_42" data-name="Path 42" d="M272.868,305.422a9.583,9.583,0,0,0-.8-2.086c-.4-.679-.654-.854-2.036-.854h-2.512v12.237c0,1.96.2,2.237,2.587,2.387v.7h-7.313v-.7c2.337-.151,2.538-.4,2.538-2.387V302.482h-2.287c-1.382,0-1.784.151-2.211.9a11.421,11.421,0,0,0-.829,2.036h-.754c.151-1.533.3-3.116.376-4.523h.579c.376.6.653.578,1.356.578h9.951a1.261,1.261,0,0,0,1.281-.578h.6c0,1.181.1,2.99.226,4.447Z" transform="translate(-205.049 -300.899)" fill="#fff"/>
        <path id="Path_43" data-name="Path 43" d="M340.988,318.632v-.7c1.633-.2,1.834-.452,1.483-1.407-.327-.98-.83-2.236-1.357-3.819h-5.428c-.4,1.131-.78,2.111-1.131,3.141-.553,1.633-.2,1.834,1.86,2.085v.7h-5.806v-.7c1.584-.2,1.985-.377,2.865-2.638l5.2-13.193.8-.151c1.583,4.3,3.317,9.046,4.9,13.393.8,2.186,1.03,2.387,2.814,2.588v.7Zm-2.513-13.393c-.8,2.161-1.658,4.448-2.413,6.433h4.7Z" transform="translate(-261.006 -301.721)" fill="#fff"/>
        <path id="Path_44" data-name="Path 44" d="M438.3,313.513c-.176.854-.779,3.216-1.03,4.3H424.2l-.227-.4c3.493-4.825,6.986-9.825,10.529-14.926h-4.95c-2.237,0-2.614.151-3.141.93a9.071,9.071,0,0,0-.955,2.111l-.753-.025c.125-1.307.426-3.493.477-4.6h.654c.276.6.578.578,1.331.578h10.152l.2.4c-3.492,4.9-6.884,9.775-10.353,14.85.78.05,2.413.075,4.121.075,3.292,0,4.045-.125,4.749-.9a8.833,8.833,0,0,0,1.533-2.563Z" transform="translate(-335.1 -300.899)" fill="#fff"/>
        <path id="Path_45" data-name="Path 45" d="M519.871,304.28c-1.759.2-2.06.477-3.065,2.085-1.131,1.834-2.061,3.569-3.292,5.8a2.664,2.664,0,0,0-.377,1.483v3.091c0,2.086.226,2.237,2.563,2.462v.7h-7.212v-.7c2.286-.3,2.463-.351,2.463-2.462V313.5a2.569,2.569,0,0,0-.5-1.457c-.88-1.633-1.734-3.216-3.091-5.579-.98-1.709-1.231-2.011-2.939-2.186v-.7H510.6v.7c-1.809.251-1.708.578-1.256,1.432,1.055,1.935,2.236,4.2,3.292,6.081.9-1.684,2.337-4.423,3.041-5.8.578-1.256.5-1.508-1.483-1.709v-.7h5.679Z" transform="translate(-398.177 -302.998)" fill="#fff"/>
        <path id="Path_46" data-name="Path 46" d="M604.664,315.731c-.15.654-.829,3.242-1.08,4H591.372v-.7c2.337-.176,2.512-.4,2.512-2.462v-9.925c0-2.236-.276-2.362-2.161-2.538v-.7h7.69c2.362,0,3.342-.025,3.643-.05.025.628.127,2.513.227,3.845l-.754.126a8.332,8.332,0,0,0-.754-1.91c-.4-.829-.98-1.005-2.488-1.005H596.9c-.779,0-.83.075-.83.8v5.553h2.79c1.884,0,2.009-.377,2.312-2.086h.779v5.176h-.779c-.327-1.809-.528-2.061-2.337-2.061H596.07v5c0,1.759.553,1.91,1.81,1.935h2.336c1.533,0,1.784-.226,2.337-.88a10.813,10.813,0,0,0,1.357-2.312Z" transform="translate(-467.243 -302.815)" fill="#fff"/>
        <path id="Path_47" data-name="Path 47" d="M683.713,315.731c-.151.654-.829,3.242-1.081,4H670.421v-.7c2.337-.176,2.512-.4,2.512-2.462v-9.925c0-2.236-.276-2.362-2.161-2.538v-.7h7.69c2.361,0,3.342-.025,3.643-.05.025.628.127,2.513.227,3.845l-.754.126a8.326,8.326,0,0,0-.754-1.91c-.4-.829-.98-1.005-2.488-1.005h-2.387c-.778,0-.829.075-.829.8v5.553h2.79c1.884,0,2.01-.377,2.311-2.086H681v5.176h-.779c-.327-1.809-.527-2.061-2.336-2.061h-2.765v5c0,1.759.553,1.91,1.81,1.935h2.337c1.533,0,1.784-.226,2.337-.88a10.826,10.826,0,0,0,1.357-2.312Z" transform="translate(-529.228 -302.815)" fill="#fff"/>
        <path id="Path_48" data-name="Path 48" d="M766.254,304.28c-1.607.176-2.135.427-2.211,1.583-.025.8-.075,1.859-.075,4.2v10.077h-.955l-10.755-13.142v6.282c0,2.262.076,3.393.126,4.121.05,1.281.678,1.658,2.487,1.809v.7h-6.106v-.7c1.558-.125,2.161-.5,2.261-1.733.075-.8.125-1.935.125-4.222v-6.408a2.189,2.189,0,0,0-.5-1.658c-.478-.628-1-.779-2.237-.9v-.7h3.77l10.654,12.639v-6.156c0-2.337-.05-3.417-.125-4.171-.075-1.131-.653-1.483-2.664-1.608v-.7h6.206Z" transform="translate(-590.383 -302.998)" fill="#fff"/>
        <ellipse id="Ellipse_20" data-name="Ellipse 20" cx="1.765" cy="1.765" rx="1.765" ry="1.765" transform="translate(39.223 14.048)" fill="#fff"/>
      </g>
      <g id="Group_12550" data-name="Group 12550" transform="translate(22.068 30.102)">
        <path id="Path_72" data-name="Path 72" d="M112.418,449.458a3.771,3.771,0,0,1,2.755,1.146l.12.12.418-.417-.12-.119a4.491,4.491,0,1,0,0,6.353l.049-.049v-3.42h-3.548v.584h2.963v2.584a3.9,3.9,0,1,1-2.637-6.782" transform="translate(-107.923 -447.994)" fill="#fff"/>
        <path id="Path_73" data-name="Path 73" d="M153.567,454.725l-2.708-4.681h-.677l3.088,5.341v3.147h.585v-3.147l3.088-5.341h-.677Z" transform="translate(-141.267 -448.917)" fill="#fff"/>
        <path id="Path_74" data-name="Path 74" d="M194.924,457.506l-5.366-7.393-.051-.069h-.569v8.488h.584v-7.462l5.364,7.392.051.07h.313l.011.016.247-.016v-8.488h-.585Z" transform="translate(-171.847 -448.917)" fill="#fff"/>
        <path id="Path_75" data-name="Path 75" d="M231.447,450.044l-3.96,8.488h.65l.622-1.333h5.909l.623,1.333h.649l-3.96-8.488Zm-2.412,6.57,2.678-5.744,2.679,5.744Z" transform="translate(-202.264 -448.918)" fill="#fff"/>
        <path id="Path_76" data-name="Path 76" d="M274.961,458.531h5.03v-.584h-4.445v-3.367H279v-.585h-3.457v-3.367h4.445v-.585h-5.03Z" transform="translate(-239.724 -448.917)" fill="#fff"/>
        <path id="Path_77" data-name="Path 77" d="M335.652,452.3c0,.046,0,.092,0,.138l-2.3-2.988a14.837,14.837,0,0,0,1.278-.908,2.144,2.144,0,0,0-2.621-3.395,2.093,2.093,0,0,0-.821,1.436,2.328,2.328,0,0,0,.431,1.593l.868,1.111a8.3,8.3,0,0,0-1.251.89,2.722,2.722,0,0,0-1.016,2.113,3.012,3.012,0,0,0,5.138,2.125,3.11,3.11,0,0,0,.536-.709l.664.857h.733l-1.146-1.491a3.288,3.288,0,0,0,.092-.782v-2.183h1.729v-.585h-2.314Zm-2.428,2.42a2.428,2.428,0,0,1-2.419-2.42v-.03a2.139,2.139,0,0,1,.819-1.659,8.684,8.684,0,0,1,1.22-.857l2.648,3.434a2.452,2.452,0,0,1-.551.82,2.319,2.319,0,0,1-1.718.711m.294-9.414a1.5,1.5,0,0,1,1.035.589,1.561,1.561,0,0,1-.278,2.183,14.92,14.92,0,0,1-1.278.906l-.911-1.17a1.714,1.714,0,0,1-.315-1.164,1.539,1.539,0,0,1,1.747-1.344" transform="translate(-283.325 -444.706)" fill="#fff"/>
        <path id="Path_78" data-name="Path 78" d="M402.412,450.044h-2.886v8.488h.585v-2.223h2.3a3.133,3.133,0,0,0,0-6.265m0,5.681h-2.3v-5.1h2.3a2.548,2.548,0,1,1,0,5.1" transform="translate(-338.011 -448.918)" fill="#fff"/>
        <path id="Path_79" data-name="Path 79" d="M439.846,448.873a4.486,4.486,0,1,0,3.172,1.314,4.353,4.353,0,0,0-3.172-1.314m0,8.4a3.913,3.913,0,1,1,2.755-1.146,3.782,3.782,0,0,1-2.755,1.146" transform="translate(-366.277 -447.994)" fill="#fff"/>
        <path id="Path_80" data-name="Path 80" d="M488.15,450.044h-.585v8.488h5.03v-.585H488.15Z" transform="translate(-407.478 -448.918)" fill="#fff"/>
        <path id="Path_81" data-name="Path 81" d="M511.013,454.725l-2.708-4.681h-.677l3.088,5.341v3.147h.585v-3.147l3.087-5.341h-.678Z" transform="translate(-423.308 -448.917)" fill="#fff"/>
        <path id="Path_82" data-name="Path 82" d="M546.2,449.458a3.77,3.77,0,0,1,2.754,1.146l.12.12.418-.417-.12-.119a4.491,4.491,0,1,0,0,6.353l.12-.119L549.07,456l-.12.12a3.9,3.9,0,1,1-2.754-6.667" transform="translate(-450.192 -447.994)" fill="#fff"/>
        <path id="Path_83" data-name="Path 83" d="M589.816,450.044h-.585v8.488h5.03v-.585h-4.445Z" transform="translate(-487.697 -448.918)" fill="#fff"/>
        <rect id="Rectangle_1553" data-name="Rectangle 1553" width="0.585" height="8.488" transform="translate(107.857 1.126)" fill="#fff"/>
        <path id="Path_84" data-name="Path 84" d="M639.94,457.506l-5.365-7.393-.051-.069h-.57v8.488h.584v-7.462l5.365,7.393.051.069h.312l.011.016.247-.016v-8.488h-.585Z" transform="translate(-522.984 -448.917)" fill="#fff"/>
        <rect id="Rectangle_1554" data-name="Rectangle 1554" width="0.585" height="8.488" transform="translate(120.077 1.126)" fill="#fff"/>
        <path id="Path_85" data-name="Path 85" d="M696.789,456.124a3.906,3.906,0,1,1,0-5.521l.12.12.417-.417-.12-.119a4.491,4.491,0,1,0,0,6.353l.12-.119L696.91,456Z" transform="translate(-566.844 -447.994)" fill="#fff"/>
      </g>
    </g>
  </g>
</svg>
