<svg xmlns="http://www.w3.org/2000/svg" width="122.087" height="24" viewBox="0 0 122.087 24">
  <g id="Group_12547" data-name="Group 12547" transform="translate(-523.122 -3202.34)">
    <g id="star-24px" transform="translate(523.122 3202.34)">
      <path id="Path_7" data-name="Path 7" d="M0,0H24V24H0Z" fill="none"/>
      <path id="Path_8" data-name="Path 8" d="M12.644,18.563l6.578,4.046-1.746-7.625,5.811-5.131-7.653-.662L12.644,2,9.653,9.191,2,9.853l5.811,5.131L6.066,22.609Z" transform="translate(-0.644 -0.644)" fill="#ff4e00"/>
      <path id="Path_9" data-name="Path 9" d="M0,0H24V24H0Z" fill="none"/>
    </g>
    <g id="star-24px-2" data-name="star-24px" transform="translate(572.213 3202.34)">
      <path id="Path_7-2" data-name="Path 7" d="M0,0H24V24H0Z" fill="none"/>
      <path id="Path_8-2" data-name="Path 8" d="M12.644,18.563l6.578,4.046-1.746-7.625,5.811-5.131-7.653-.662L12.644,2,9.653,9.191,2,9.853l5.811,5.131L6.066,22.609Z" transform="translate(-0.644 -0.644)" fill="#ff4e00"/>
      <path id="Path_9-2" data-name="Path 9" d="M0,0H24V24H0Z" fill="none"/>
    </g>
    <g id="star-24px-3" data-name="star-24px" transform="translate(547.668 3202.34)">
      <path id="Path_7-3" data-name="Path 7" d="M0,0H24V24H0Z" fill="none"/>
      <path id="Path_8-3" data-name="Path 8" d="M12.644,18.563l6.578,4.046-1.746-7.625,5.811-5.131-7.653-.662L12.644,2,9.653,9.191,2,9.853l5.811,5.131L6.066,22.609Z" transform="translate(-0.644 -0.644)" fill="#ff4e00"/>
      <path id="Path_9-3" data-name="Path 9" d="M0,0H24V24H0Z" fill="none"/>
    </g>
    <g id="star-24px-4" data-name="star-24px" transform="translate(596.663 3202.34)">
      <path id="Path_7-4" data-name="Path 7" d="M0,0H24V24H0Z" fill="none"/>
      <path id="Path_8-4" data-name="Path 8" d="M12.644,18.563l6.578,4.046-1.746-7.625,5.811-5.131-7.653-.662L12.644,2,9.653,9.191,2,9.853l5.811,5.131L6.066,22.609Z" transform="translate(-0.644 -0.644)" fill="#ff4e00"/>
      <path id="Path_9-4" data-name="Path 9" d="M0,0H24V24H0Z" fill="none"/>
    </g>
    <g id="star-24px-5" data-name="star-24px" transform="translate(621.209 3202.34)">
      <path id="Path_7-5" data-name="Path 7" d="M0,0H24V24H0Z" fill="none"/>
      <path id="Path_8-5" data-name="Path 8" d="M12.644,18.563l6.578,4.046-1.746-7.625,5.811-5.131-7.653-.662L12.644,2,9.653,9.191,2,9.853l5.811,5.131L6.066,22.609Z" transform="translate(-0.644 -0.644)" fill="#ff4e00"/>
      <path id="Path_9-5" data-name="Path 9" d="M0,0H24V24H0Z" fill="none"/>
    </g>
  </g>
</svg>
