<svg xmlns="http://www.w3.org/2000/svg" width="91.953" height="82.376" viewBox="0 0 91.953 82.376">
  <path id="Path_103" data-name="Path 103" d="M91.953,51.1a8.471,8.471,0,0,0-1.062,1.035,2.375,2.375,0,0,0-.362,1.042,11.056,11.056,0,0,1-3.892,7.069,7.717,7.717,0,0,1-12.683-3.775,9.976,9.976,0,0,1,1.788-8.329,1.451,1.451,0,0,1,2.059-.378,1.432,1.432,0,0,1,.345,2.062,8.524,8.524,0,0,0-1.492,4.717,4.751,4.751,0,0,0,6.917,4.194c2.761-1.391,4.669-5.187,3.911-8.078a6.384,6.384,0,0,0-1.405-2.424,2,2,0,0,1-.59-2.181,13.934,13.934,0,0,1-2.514-.031,12.453,12.453,0,0,1-2.786-.925,1.4,1.4,0,0,1-.644-1.981,1.52,1.52,0,0,1,1.921-.66,12.116,12.116,0,0,0,2.927.653,2.4,2.4,0,0,0,2.255-1.547c2.063-4.776,3.135-9.689,1.555-14.837A9.573,9.573,0,0,0,76.81,19.9c-1.2.227-2.368.607-3.544.94a9.131,9.131,0,0,0-1.017.414c.34,1.58.763,3.078.972,4.6a31.4,31.4,0,0,1-1.536,14.062A56.536,56.536,0,0,1,62.167,57.3a1.041,1.041,0,0,0-.028,1.523,12.689,12.689,0,0,1,2.094,7.486A37.052,37.052,0,0,1,60.91,81.35a63.723,63.723,0,0,1-3.018,5.9A4.134,4.134,0,0,1,53.467,89.5a4.571,4.571,0,0,1-3.894-3.163c-.088-.235-.4-.547-.614-.551-2.111-.041-4.223-.025-6.45-.025a3.823,3.823,0,0,0-.147.4,4.434,4.434,0,0,1-3.836,3.321A4.174,4.174,0,0,1,34.1,87.394a42.7,42.7,0,0,1-5.336-12.772c-.451-1.852-.687-3.758-.971-5.648-.158-1.059.337-1.755,1.2-1.863.958-.12,1.573.407,1.695,1.511a42.265,42.265,0,0,0,5.2,16.012c.159.288.333.567.508.846.69,1.092,1.391,1.361,2.285.882.872-.468,1.045-1.156.579-2.311-.96-2.384-2.033-4.731-2.85-7.163a51.43,51.43,0,0,1-1.755-6.747A11.987,11.987,0,0,1,36.4,61.629c1.59-2.7,1.411-4.256-.777-6.484-4.931-5.021-7.477-11.151-8.513-18.018A6.8,6.8,0,0,1,28.115,31.9a6.1,6.1,0,0,1,6.52-2.6,58.85,58.85,0,0,0,22.648,0,6.407,6.407,0,0,1,7.588,7.391,32.3,32.3,0,0,1-6.186,15.664c-.859,1.11-1.811,2.154-2.774,3.176a4.2,4.2,0,0,0-.653,5.626,12.153,12.153,0,0,1,2.119,8,59.379,59.379,0,0,1-1.613,7.055,1.389,1.389,0,0,1-1.9.883,1.458,1.458,0,0,1-.857-1.847c.278-1.069.634-2.117.935-3.18a11.354,11.354,0,0,0-1.307-9.55,6.964,6.964,0,0,1,1.083-8.96,29,29,0,0,0,8.23-17.338c.351-2.649-1.611-4.415-4.337-3.993-2.214.342-4.431.7-6.659.907a57.611,57.611,0,0,1-16.349-.835c-3.171-.613-5.025,1.2-4.549,4.406a28.89,28.89,0,0,0,6.706,15.3c.475.539.981,1.05,1.477,1.571a7.072,7.072,0,0,1,1.027,8.98A10.811,10.811,0,0,0,37.7,70.793a38.555,38.555,0,0,0,1.324,4.649c.74,2.083,1.588,4.128,2.453,6.163a1.6,1.6,0,0,0,.928.792,15.76,15.76,0,0,0,7.9.13c1.762-.4,2.5.319,2.136,2.086a1.535,1.535,0,0,0,.938,1.823,1.483,1.483,0,0,0,1.986-.713A40.63,40.63,0,0,0,59.99,74.969a29.266,29.266,0,0,0,1.279-8.755c-.076-2.644-.6-5.1-2.7-6.978-.683-.61-.565-1.352.059-2.249,2.134-3.066,4.409-6.052,6.319-9.254a37.921,37.921,0,0,0,5.382-15.38c.69-6.348-.518-12.126-5.537-16.574a20.6,20.6,0,0,0-9.871-4.652,40.749,40.749,0,0,0-20.837.8c-6.579,2.132-11,6.409-12.324,13.408a27.634,27.634,0,0,0,1.447,14.125,55.069,55.069,0,0,0,8.978,16.161c.4.521.834,1.021,1.225,1.55a1.506,1.506,0,0,1-.166,2.163,1.42,1.42,0,0,1-2.132-.323c-1.527-2-3.092-3.971-4.482-6.06a47.977,47.977,0,0,1-7.678-18.125,25.944,25.944,0,0,1,.693-13.121c.037-.11.058-.225.085-.332-6.426-3.228-15-2.194-16.547,7.575a22.3,22.3,0,0,0,1.98,12.417,2.917,2.917,0,0,0,3.469,1.716,13.5,13.5,0,0,0,1.777-.6,1.492,1.492,0,0,1,1.983.673,1.384,1.384,0,0,1-.7,1.96,26.442,26.442,0,0,1-3.413,1.007c-.389.1-.715.086-.844.6a1.514,1.514,0,0,1-.663.8C4.5,48.9,3.907,50.938,4.441,53.4a7.986,7.986,0,0,0,2.923,4.709,4.82,4.82,0,0,0,7.843-4.638c-.08-.5-.238-.991-.3-1.492a1.442,1.442,0,0,1,1.1-1.706,1.47,1.47,0,0,1,1.735,1.06c2.134,6.548-2.783,11.343-7.927,10.887A7.93,7.93,0,0,1,5.352,60.3a10.95,10.95,0,0,1-3.945-7.128,1.436,1.436,0,0,0-.739-1.293,1.347,1.347,0,0,1-.3-2.1c.223-.279.513-.5.75-.772,1.723-1.943,2.408-4.045,1.282-6.59A26.514,26.514,0,0,1,.044,31.443,17.681,17.681,0,0,1,1.53,24.2c2.452-5.431,7.393-8.155,13.63-7.277A39.308,39.308,0,0,1,20.342,18.3c.384.109.688.308.982-.18,3.188-5.309,8.074-8.246,13.927-9.635a43.9,43.9,0,0,1,23.31.541,20.333,20.333,0,0,1,11.984,9.018c.3.5.594.428,1.032.254a19.341,19.341,0,0,1,6.878-1.519c6.19-.089,10.8,3.231,12.575,9.195.448,1.5.622,3.089.922,4.637v2.156a3.092,3.092,0,0,0-.159.6,26.082,26.082,0,0,1-2.251,8.987c-1.179,2.651-.436,4.8,1.392,6.791.36.392.68.821,1.018,1.233Z" transform="translate(0.001 -7.177)" fill="#b37978"/>
</svg>
